<?xml version="1.0" encoding="utf-8"?>
<!DOCTYPE svg PUBLIC "-//W3C//DTD SVG 1.1//EN" "http://www.w3.org/Graphics/SVG/1.1/DTD/svg11.dtd" [
	<!ENTITY st0 "fill:#FFFFFF;">
	<!ENTITY st1 "fill:url(#Eyeball_1_);">
	<!ENTITY st2 "fill:#231F20;">
]>
<svg version="1.1" id="Tokia_1_" xmlns="http://www.w3.org/2000/svg" xmlns:xlink="http://www.w3.org/1999/xlink" x="0px" y="0px"
	 viewBox="0 0 148.983 45" style="enable-background:new 0 0 148.983 45;" xml:space="preserve">
<path id="Tokia" style="&st0;" d="M104.449,6.312h5.545v32.847h-5.545V6.312z M145.691,31.687h2.772l-2.257-5.122h-2.772
	L134.51,6.312h-5.921l-8.924,20.253h-2.776l-2.257,5.122h2.776l-3.292,7.471h5.921l11.513-26.128l5.968,13.534h-6.381l-2.257,5.122
	h10.894l3.29,7.471h5.921L145.691,31.687z M99.807,6.312L77.721,29.948v9.211h-5.545V11.387h-8.534
	c1.895,3.281,2.984,7.073,2.984,11.114c0,12.407-10.216,22.5-22.774,22.5C31.296,45,21.08,34.907,21.08,22.5
	c0-4.041,1.089-7.832,2.984-11.114h-8.556v27.772H9.962V11.387h-5.2L0,6.312h28.06C32.158,2.408,37.724,0,43.853,0
	c6.128,0,11.695,2.408,15.793,6.312h12.53h5.545h7.517l-4.73,5.075h-2.787v10.95L92.759,6.312H99.807z M61.144,22.5
	c0-9.399-7.742-17.018-17.292-17.018c-9.549,0-17.291,7.619-17.291,17.018c0,9.398,7.742,17.018,17.291,17.018
	C53.403,39.518,61.144,31.898,61.144,22.5z M85.942,29.3l7.474,9.859h6.578L89.714,25.248L85.942,29.3z"/>
<linearGradient id="Eyeball_1_" gradientUnits="userSpaceOnUse" x1="43.853" y1="34.2464" x2="43.853" y2="10.7544">
	<stop  offset="0" style="stop-color:#12B2A5"/>
	<stop  offset="1" style="stop-color:#04DF8A"/>
</linearGradient>
<path id="Eyeball" style="&st1;" d="M55.599,22.5c0,6.487-5.259,11.746-11.746,11.746c-6.487,0-11.746-5.259-11.746-11.746
	c0-6.487,5.259-11.746,11.746-11.746C50.34,10.754,55.599,16.013,55.599,22.5z"/>
<circle id="Dot" style="&st2;" cx="43.853" cy="22.5" r="5.563"/>
</svg>
