<svg xmlns="http://www.w3.org/2000/svg" xmlns:xlink="http://www.w3.org/1999/xlink" viewBox="0 0 560 1022"><defs><style>.a{isolation:isolate;}.b{fill:#d1dee5;}.c{fill:#12b2a5;}.d{fill:#04df8a;}.e{fill:url(#a);}.f{fill:url(#b);}.g{fill:url(#c);}.h{fill:#007369;}.i{fill:#fff;}.j,.k{fill-rule:evenodd;}.j{fill:url(#d);}.k{opacity:0.25;fill:url(#e);}.l{fill:url(#f);}.m{fill:#19323c;}.n{fill:#e7f1f1;}.o{fill:#0f2028;}.p{fill:url(#g);}.q{fill:#c3d1d8;}.r{fill:url(#h);}.s{opacity:0.2;mix-blend-mode:multiply;}.t{fill:url(#i);}.u{fill:url(#j);}.v{fill:url(#k);}.w{fill:url(#l);}.x{fill:url(#m);}.y{fill:url(#n);}.z{fill:url(#o);}.aa{fill:url(#p);}.ab{fill:url(#q);}.ac{fill:url(#r);}.ad{fill:url(#s);}.ae{fill:url(#t);}.af{fill:url(#u);}.ag{fill:url(#v);}.ah{fill:url(#w);}.ai{fill:url(#x);}.aj{fill:url(#y);}.ak{fill:url(#z);}.al{fill:url(#aa);}</style><linearGradient id="a" x1="858.66" y1="912" x2="810.66" y2="912" gradientTransform="translate(1171.082 -146.66) rotate(90)" gradientUnits="userSpaceOnUse"><stop offset="0" stop-color="#12b2a5"/><stop offset="1" stop-color="#04df8a"/></linearGradient><linearGradient id="b" x1="-357.129" y1="-8" x2="-293.129" y2="-8" gradientTransform="translate(378.87 653.129) rotate(90)" xlink:href="#a"/><linearGradient id="c" x1="912.66" y1="776" x2="1072.66" y2="776" gradientTransform="translate(1171.082 -146.66) rotate(90)" gradientUnits="userSpaceOnUse"><stop offset="0" stop-color="#04df8a"/><stop offset="1" stop-color="#12b2a5"/></linearGradient><radialGradient id="d" cx="545.871" cy="673.666" r="536.12" gradientUnits="userSpaceOnUse"><stop offset="0" stop-color="#12b2a5"/><stop offset="1" stop-color="#19323c"/></radialGradient><radialGradient id="e" cx="547.371" cy="684.5" r="511.713" gradientUnits="userSpaceOnUse"><stop offset="0" stop-color="#fff"/><stop offset="0.679" stop-color="#007369"/><stop offset="1" stop-color="#19323c"/></radialGradient><linearGradient id="f" x1="73.853" y1="401.246" x2="73.853" y2="377.754" gradientTransform="matrix(1, 0, 0, 1, 0, 0)" xlink:href="#a"/><radialGradient id="g" cx="78.871" cy="481" r="39.051" gradientUnits="userSpaceOnUse"><stop offset="0" stop-color="#e1eaf0"/><stop offset="0.235" stop-color="#e1eaf0"/><stop offset="1" stop-color="#e7f1f1"/></radialGradient><linearGradient id="h" x1="-461.129" y1="48" x2="-381.13" y2="48" gradientTransform="translate(378.87 653.129) rotate(90)" xlink:href="#a"/><linearGradient id="i" x1="-605.129" y1="79.999" x2="-621.129" y2="79.999" gradientTransform="translate(378.87 653.129) rotate(90)" xlink:href="#c"/><linearGradient id="j" x1="-461.975" y1="0.422" x2="-477.129" y2="0.422" gradientTransform="translate(378.87 653.129) rotate(90)" xlink:href="#c"/><linearGradient id="k" x1="-517.129" y1="27.577" x2="-524.283" y2="27.577" gradientTransform="translate(378.87 653.129) rotate(90)" xlink:href="#c"/><linearGradient id="l" x1="904.659" y1="752.423" x2="872.659" y2="752.423" xlink:href="#a"/><linearGradient id="m" x1="927.813" y1="828.423" x2="920.66" y2="828.423" xlink:href="#a"/><linearGradient id="n" x1="-582.795" y1="172.423" x2="-589.949" y2="172.423" gradientTransform="translate(378.87 653.129) rotate(90)" xlink:href="#c"/><linearGradient id="o" x1="-461.129" y1="200.422" x2="-476.283" y2="200.422" gradientTransform="translate(378.87 653.129) rotate(90)" xlink:href="#c"/><linearGradient id="p" x1="1047.813" y1="887.577" x2="1032.66" y2="887.577" xlink:href="#a"/><linearGradient id="q" x1="-589.128" y1="8" x2="-541.129" y2="8" gradientTransform="translate(378.87 653.129) rotate(90)" xlink:href="#a"/><linearGradient id="r" x1="-389.129" y1="200" x2="-309.129" y2="200" gradientTransform="translate(378.87 653.129) rotate(90)" xlink:href="#a"/><linearGradient id="s" x1="-405.129" y1="140" x2="-437.129" y2="140" gradientTransform="translate(378.87 653.129) rotate(90)" xlink:href="#c"/><linearGradient id="t" x1="1008.66" y1="992" x2="976.66" y2="992" xlink:href="#a"/><linearGradient id="u" x1="-373.129" y1="92" x2="-261.13" y2="92" gradientTransform="translate(378.87 653.129) rotate(90)" xlink:href="#a"/><linearGradient id="v" x1="-589.129" y1="128" x2="-477.129" y2="128" gradientTransform="translate(378.87 653.129) rotate(90)" xlink:href="#a"/><linearGradient id="w" x1="784.66" y1="992" x2="944.66" y2="992" xlink:href="#c"/><linearGradient id="x" x1="1040.66" y1="948" x2="1104.66" y2="948" xlink:href="#c"/><linearGradient id="y" x1="1104.66" y1="852" x2="1168.66" y2="852" xlink:href="#c"/><linearGradient id="z" x1="792.456" y1="807.999" x2="872.455" y2="807.999" xlink:href="#c"/><linearGradient id="aa" x1="920.66" y1="872" x2="1000.66" y2="872" xlink:href="#c"/></defs><title>card-mobile_3</title><g class="a"><path class="b" d="M334.871,320h0a4.012,4.012,0,0,1,4,4v40.184a4.012,4.012,0,0,1-4,4h0a4.012,4.012,0,0,1-4-4V324A4.012,4.012,0,0,1,334.871,320Zm-16-232v28a4.012,4.012,0,0,0,4,4h0a4.012,4.012,0,0,0,4-4V88a4.012,4.012,0,0,0-4-4h0A4.012,4.012,0,0,0,318.871,88Zm-116,100v28.184a4.012,4.012,0,0,0,4,4h0a4.012,4.012,0,0,0,4-4V188a4.012,4.012,0,0,0-4-4h0A4.012,4.012,0,0,0,202.871,188Zm168-44v12a4.012,4.012,0,0,0,4,4h0a4.012,4.012,0,0,0,4-4V144a4.012,4.012,0,0,0-4-4h0A4.012,4.012,0,0,0,370.871,144Zm-192-100V96a4.012,4.012,0,0,0,4,4h0a4.012,4.012,0,0,0,4-4V44a4.012,4.012,0,0,0-4-4h0A4.012,4.012,0,0,0,178.871,44Zm56,115.816V188a4.012,4.012,0,0,0,4,4h0a4.012,4.012,0,0,0,4-4V159.816a4.012,4.012,0,0,0-4-4h0A4.012,4.012,0,0,0,234.871,159.816ZM258.871,4V32a4.012,4.012,0,0,0,4,4h0a4.012,4.012,0,0,0,4-4V4a4.012,4.012,0,0,0-4-4h0A4.012,4.012,0,0,0,258.871,4Zm72,296v8a4.012,4.012,0,0,0,4,4h0a4.012,4.012,0,0,0,4-4v-8a4.012,4.012,0,0,0-4-4h0A4.012,4.012,0,0,0,330.871,300Zm-60-104v56a4.012,4.012,0,0,0,4,4h0a4.012,4.012,0,0,0,4-4V196a4.012,4.012,0,0,0-4-4h0A4.012,4.012,0,0,0,270.871,196Zm-36,80v80a4.012,4.012,0,0,0,4,4h0a4.012,4.012,0,0,0,4-4V276a4.012,4.012,0,0,0-4-4h0A4.012,4.012,0,0,0,234.871,276Z"/><path class="b" d="M231.083,818v48a4.012,4.012,0,0,0,4,4h0a4.012,4.012,0,0,0,4-4V818a4.012,4.012,0,0,0-4-4h0A4.012,4.012,0,0,0,231.083,818Zm0-48v32a4.012,4.012,0,0,0,4,4h0a4.012,4.012,0,0,0,4-4V770a4.012,4.012,0,0,0-4-4h0A4.012,4.012,0,0,0,231.083,770Zm96,120v32a4.012,4.012,0,0,0,4,4h0a4.012,4.012,0,0,0,4-4V890a4.012,4.012,0,0,0-4-4h0A4.012,4.012,0,0,0,327.083,890Zm0-32v12a4.012,4.012,0,0,0,4,4h0a4.012,4.012,0,0,0,4-4V858a4.012,4.012,0,0,0-4-4h0A4.012,4.012,0,0,0,327.083,858Zm55.749-164h0a4.012,4.012,0,0,0-4,4v72a4.012,4.012,0,0,0,4,4h0a4.012,4.012,0,0,0,4-4V698A4.012,4.012,0,0,0,382.832,694Z"/><path class="c" d="M334.871,160h0a4.012,4.012,0,0,1,4,4v32a4.012,4.012,0,0,1-4,4h0a4.012,4.012,0,0,1-4-4V164A4.012,4.012,0,0,1,334.871,160Zm-64,108.388V284a4.012,4.012,0,0,0,4,4h0a4.012,4.012,0,0,0,4-4V268.388a4.012,4.012,0,0,0-4-4h0A4.012,4.012,0,0,0,270.871,268.388Zm40-124.388h0a4.012,4.012,0,0,1,4,4v24a4.012,4.012,0,0,1-4,4h0a4.012,4.012,0,0,1-4-4V148A4.012,4.012,0,0,1,310.871,144Zm48-120h0a4.012,4.012,0,0,1,4,4V51.612a4.012,4.012,0,0,1-4,4h0a4.012,4.012,0,0,1-4-4V28A4.012,4.012,0,0,1,358.871,24Zm-96,20h0a4.012,4.012,0,0,1,4,4V63a4.012,4.012,0,0,1-4,4h0a4.012,4.012,0,0,1-4-4V48A4.012,4.012,0,0,1,262.871,44Zm112,220.388h0a4.012,4.012,0,0,1,4,4v32a4.012,4.012,0,0,1-4,4h0a4.012,4.012,0,0,1-4-4v-32A4.012,4.012,0,0,1,374.871,264.388Zm24-36.388h0a4.012,4.012,0,0,1,4,4v28a4.012,4.012,0,0,1-4,4h0a4.012,4.012,0,0,1-4-4V232A4.012,4.012,0,0,1,398.871,228Zm0,44h0a4.012,4.012,0,0,1,4,4v8a4.012,4.012,0,0,1-4,4h0a4.012,4.012,0,0,1-4-4v-8A4.012,4.012,0,0,1,398.871,272Zm-216-160.525h0a4.012,4.012,0,0,1,4,4V132a4.012,4.012,0,0,1-4,4h0a4.012,4.012,0,0,1-4-4V115.475A4.012,4.012,0,0,1,182.871,111.475ZM370.871,52V67.612a4.012,4.012,0,0,0,4,4h0a4.012,4.012,0,0,0,4-4V52a4.012,4.012,0,0,0-4-4h0A4.012,4.012,0,0,0,370.871,52Z"/><path class="d" d="M235.083,877.474h0a4.012,4.012,0,0,1,4,4V898a4.012,4.012,0,0,1-4,4h0a4.012,4.012,0,0,1-4-4V881.474A4.012,4.012,0,0,1,235.083,877.474Zm-20-19.659V898a4.012,4.012,0,0,0,4,4h0a4.012,4.012,0,0,0,4-4V857.816a4.012,4.012,0,0,0-4-4h0A4.012,4.012,0,0,0,215.083,857.816Zm112,87.659V962a4.012,4.012,0,0,0,4,4h0a4.012,4.012,0,0,0,4-4V945.474a4.012,4.012,0,0,0-4-4h0A4.012,4.012,0,0,0,327.083,945.474Zm-16-31.475v48a4.012,4.012,0,0,0,4,4h0a4.012,4.012,0,0,0,4-4V914a4.012,4.012,0,0,0-4-4h0A4.012,4.012,0,0,0,311.083,914Zm-24-156.341h0a4.012,4.012,0,0,0-4,4v16.525a4.012,4.012,0,0,0,4,4h0a4.012,4.012,0,0,0,4-4V761.658A4.012,4.012,0,0,0,287.083,757.658Zm16-47.659h0a4.012,4.012,0,0,0-4,4v20a4.012,4.012,0,0,0,4,4h0a4.012,4.012,0,0,0,4-4V714A4.012,4.012,0,0,0,303.083,710Zm0,36h0a4.012,4.012,0,0,0-4,4v28.184a4.012,4.012,0,0,0,4,4h0a4.012,4.012,0,0,0,4-4V750A4.012,4.012,0,0,0,303.083,746Z"/><path class="e" d="M283.083,688a24,24,0,1,0-24,24A24,24,0,0,0,283.083,688Z"/><path class="f" d="M418.871,328a32,32,0,1,0-32,32A32,32,0,0,0,418.871,328Zm-47.153,0a15.154,15.154,0,1,1,15.153,15.154A15.155,15.155,0,0,1,371.717,328Z"/><path class="g" d="M427.083,922.8V801.2a3.209,3.209,0,0,0-3.2-3.2h-21.05V770a4,4,0,0,0-8,0v40a4,4,0,0,1-8,0V786a4,4,0,0,0-8,0v12H366.283a3.209,3.209,0,0,0-3.2,3.2V922.8a3.209,3.209,0,0,0,3.2,3.2h57.6A3.209,3.209,0,0,0,427.083,922.8Z"/><path class="h" d="M371.083,862a24,24,0,1,1,24,24A24,24,0,0,1,371.083,862Zm35.75-48h2a2,2,0,0,1,2,2v18a4,4,0,0,0,4,4h0a4,4,0,0,0,4-4V810a4,4,0,0,0-4-4h-8a4,4,0,0,0-4,4h0A4,4,0,0,0,406.832,814Zm-32-8h0a4,4,0,0,0-4,4v24a4,4,0,0,0,4,4h0a4,4,0,0,0,4-4V810A4,4,0,0,0,374.832,806Zm-4,84v24a4,4,0,0,0,4,4h40a4,4,0,0,0,4-4V890a4,4,0,0,0-4-4h0a4,4,0,0,0-4,4v18a2,2,0,0,1-2,2h-28a2,2,0,0,1-2-2V890a4,4,0,0,0-4-4h0A4,4,0,0,0,370.832,890Z"/><path class="i" d="M403.689,865.208a.583.583,0,0,1,.183.431,5.326,5.326,0,0,1-1.164,3.3,7.4,7.4,0,0,1-3.127,2.25,12.046,12.046,0,0,1-4.544.806,9.542,9.542,0,0,1-6.479-2.028A7.265,7.265,0,0,1,386.313,864v-.167H384.6a.733.733,0,0,1-.518-.194.649.649,0,0,1-.211-.5v-2.306a.65.65,0,0,1,.211-.5.733.733,0,0,1,.518-.194h1.712v-.167a7.427,7.427,0,0,1,2.271-5.944A9.434,9.434,0,0,1,395.036,852a12.046,12.046,0,0,1,4.544.806,7.408,7.408,0,0,1,3.127,2.249,5.332,5.332,0,0,1,1.164,3.306.583.583,0,0,1-.183.431.593.593,0,0,1-.435.181h-4.011a.952.952,0,0,1-.6-.167,1.226,1.226,0,0,1-.352-.583,2.763,2.763,0,0,0-1.178-1.569,3.992,3.992,0,0,0-2.075-.487,3.149,3.149,0,0,0-2.482.931,4.344,4.344,0,0,0-.772,3.042H395.6a.688.688,0,0,1,.506.194.676.676,0,0,1,.2.5v2.306a.689.689,0,0,1-.2.486.665.665,0,0,1-.506.208h-3.814a4.4,4.4,0,0,0,.772,3.056,3.124,3.124,0,0,0,2.482.944,3.992,3.992,0,0,0,2.075-.486,2.763,2.763,0,0,0,1.178-1.569,1.226,1.226,0,0,1,.352-.583.945.945,0,0,1,.6-.167h4.011A.6.6,0,0,1,403.689,865.208Z"/><path class="j" d="M17,337H543a17,17,0,0,1,17,17V670a17,17,0,0,1-17,17H17A17,17,0,0,1,0,670V354A17,17,0,0,1,17,337Z"/><path class="k" d="M560,585.014v4A97.987,97.987,0,0,0,463.1,687h-4A102,102,0,0,1,560,585.014ZM419.1,687h4A137.984,137.984,0,0,1,560,549.013v-4A141.994,141.994,0,0,0,419.1,687Zm20,0h4A117.985,117.985,0,0,1,560,569.013v-4A121.994,121.994,0,0,0,439.1,687Zm40,0h4A77.965,77.965,0,0,1,560,609.027v-4A81.987,81.987,0,0,0,479.1,687Zm-80,0h4A157.983,157.983,0,0,1,560,529.014v-4A161.994,161.994,0,0,0,399.1,687Zm140,0H543c.035,0,.068-.005.1-.005A17.958,17.958,0,0,1,560,669.055v-4.028A22,22,0,0,0,539.1,687Zm-160,0h4A177.982,177.982,0,0,1,560,509.014v-4C459.992,505.609,379.1,586.851,379.1,687Zm-216,0A398.479,398.479,0,0,1,371.459,337h-8.231C241.351,406.052,159.1,536.917,159.1,687Zm358,0h4A37.981,37.981,0,0,1,560,649.136v-4.01A41.994,41.994,0,0,0,521.1,687Zm-22,0h4A57.97,57.97,0,0,1,560,629.027v-4A61.989,61.989,0,0,0,499.1,687Zm-300,0h4A358.183,358.183,0,0,1,485.51,337H468.349C313.362,377.965,199.1,519.135,199.1,687Zm20,0h4A337.968,337.968,0,0,1,559.256,349.023a16.894,16.894,0,0,0-1.824-3.977C370.243,347.019,219.1,499.344,219.1,687Zm140,0h4A197.981,197.981,0,0,1,560,489.014v-4C448.946,485.61,359.1,575.806,359.1,687Zm-180,0h4A378.417,378.417,0,0,1,418.067,337H407.819C273.163,396.057,179.1,530.542,179.1,687Zm80,0h4A297.98,297.98,0,0,1,560,389.014v-4C393.717,385.611,259.1,520.577,259.1,687Zm-20,0h4A317.979,317.979,0,0,1,560,369.014v-4C382.672,365.611,239.1,509.531,239.1,687Zm80,0h4A237.98,237.98,0,0,1,560,449.014v-4C426.855,445.61,319.1,553.714,319.1,687Zm20,0h4A217.981,217.981,0,0,1,560,469.014v-4C437.9,465.61,339.1,564.76,339.1,687Zm-40,0h4A257.98,257.98,0,0,1,560,429.014v-4C415.809,425.61,299.1,542.669,299.1,687Zm-20,0h4A277.98,277.98,0,0,1,560,409.014v-4C404.763,405.61,279.1,531.623,279.1,687Z"/><path class="i" d="M134.449,373.312h5.545v32.847h-5.545Zm41.242,25.375h2.772l-2.257-5.122h-2.772l-8.924-20.253h-5.921l-8.924,20.253h-2.776l-2.257,5.122h2.776l-3.292,7.471h5.921l11.513-26.128,5.968,13.534h-6.381l-2.257,5.122h10.894l3.29,7.471h5.921Zm-45.884-25.375-22.086,23.636v9.211h-5.545V378.386H93.642A22.147,22.147,0,0,1,96.627,389.5a22.775,22.775,0,0,1-45.547,0,22.147,22.147,0,0,1,2.984-11.114H45.507v27.772H39.962V378.386h-5.2L30,373.312H58.06a22.912,22.912,0,0,1,31.585,0h25.593l-4.73,5.075h-2.787v10.95l15.038-16.024ZM91.144,389.5a17.293,17.293,0,1,0-17.292,17.018A17.156,17.156,0,0,0,91.144,389.5Zm24.8,6.8,7.474,9.859h6.578l-10.281-13.911Z"/><path class="l" d="M85.6,389.5a11.746,11.746,0,1,1-11.746-11.746A11.746,11.746,0,0,1,85.6,389.5Z"/><circle class="m" cx="73.853" cy="389.5" r="5.563"/><path class="n" d="M50.938,641.2H44.8a1.921,1.921,0,0,0-1.9,1.9v11.777a1.891,1.891,0,0,0,1.9,1.9h6.117a1.9,1.9,0,0,0,1.9-1.9V643.1a1.835,1.835,0,0,0-.557-1.336A1.793,1.793,0,0,0,50.938,641.2Zm-.07,13.605h-6V643.193h6Zm15.5-13.605H58.449a1,1,0,0,0-.984.984v5.109a1,1,0,0,0,.984.984h6.938v6.5a.98.98,0,0,0-.984.984.94.94,0,0,0,.293.7.955.955,0,0,0,.691.287h.984a.98.98,0,0,0,.984-.984V642.185a1,1,0,0,0-.984-.984Zm-.961,5.086H59.434v-3.094H65.41Zm16.32-4.811a.792.792,0,0,1,.333.662,1.548,1.548,0,0,1-.246.8l-7.994,13.558a.647.647,0,0,1-.6.306,1.138,1.138,0,0,1-.72-.264.823.823,0,0,1-.333-.674,1.569,1.569,0,0,1,.234-.773l8-13.543a.675.675,0,0,1,.618-.32A1.15,1.15,0,0,1,81.73,641.476Zm14.26,8.531a.949.949,0,0,1,.287.7v5.086a.98.98,0,0,1-.984.984H87.348a.931.931,0,0,1-.7-.3.989.989,0,0,1-.287-.709.917.917,0,0,1,.287-.68.959.959,0,0,1,.7-.281h3.023V643.193H87.395a.984.984,0,1,1,0-1.969H92.34v13.582h1.969v-4.1a.955.955,0,0,1,.287-.691.94.94,0,0,1,.7-.293A.949.949,0,0,1,95.99,650.007Zm13.869-8.807h-7.922a1,1,0,0,0-.984.984v5.109a1,1,0,0,0,.984.984h6.938v6.5a.984.984,0,0,0,0,1.969h.984a.98.98,0,0,0,.984-.984V642.185a1,1,0,0,0-.984-.984Zm-.961,5.086h-5.977v-3.094H108.9ZM279.743,563.3h13.494a1.685,1.685,0,0,0,1.211-.49,1.588,1.588,0,0,0,.51-1.191v-8.687a1.673,1.673,0,0,0-.5-1.211,1.6,1.6,0,0,0-1.182-.512H281.424V540.1a1.682,1.682,0,0,0,0-3.363h-1.682a1.672,1.672,0,0,0-1.221.49,1.6,1.6,0,0,0-.5,1.191v23.2a1.6,1.6,0,0,0,.51,1.182A1.67,1.67,0,0,0,279.743,563.3Zm1.643-8.687h10.17v5.324h-10.17ZM42.312,563.3a1.682,1.682,0,1,1,0-3.363H54.164v-6.566a1.688,1.688,0,0,0-.491-1.211,1.59,1.59,0,0,0-1.19-.51H45.715a1.639,1.639,0,0,1-1.191-.48,1.687,1.687,0,0,1,1.191-2.883h6.807a1.635,1.635,0,0,0,1.181-.49,1.608,1.608,0,0,0,.5-1.191V540.1H42.192a1.682,1.682,0,1,1,0-3.363H54.2a3.366,3.366,0,0,1,3.363,3.363v6.3a4.823,4.823,0,0,1-1.361,3.564,5,5,0,0,1,1.4,3.4v6.566a3.221,3.221,0,0,1-1,2.373,3.3,3.3,0,0,1-2.4.99Zm49.08,0H101.6a3.4,3.4,0,0,0,3.363-3.363v-8.248a3.206,3.206,0,0,0-1-2.393,3.285,3.285,0,0,0-2.362-.971v-9.908a1.675,1.675,0,0,0-1.682-1.682H93.074a1.608,1.608,0,0,0-1.2.49,1.636,1.636,0,0,0-.48,1.191v9.908a3.287,3.287,0,0,0-2.4.992,3.216,3.216,0,0,0-1,2.371V559.9a3.334,3.334,0,0,0,.99,2.361A3.2,3.2,0,0,0,91.392,563.3Zm3.363-23.2h3.483v8.227H94.755Zm-3.363,11.59H101.6v8.248H91.392ZM484.23,549.33a3.23,3.23,0,0,1,1,2.361v8.248a3.383,3.383,0,0,1-3.363,3.363h-7.788a5.7,5.7,0,0,1-2.222-.5l-2.543-1.061a1.58,1.58,0,0,1-1.021-1.6,1.674,1.674,0,0,1,.461-1.191,1.482,1.482,0,0,1,1.121-.49,2.863,2.863,0,0,1,1.161.3l2.222.939a1.58,1.58,0,0,0,.821.24h7.788v-8.248H471.7V536.738H483.55a1.682,1.682,0,1,1,0,3.363H475.1v8.227h6.768A3.227,3.227,0,0,1,484.23,549.33ZM457.848,536.7h-10.49a3.282,3.282,0,0,0-3.242,3.244V560.06a3.229,3.229,0,0,0,3.242,3.242h10.451a3.246,3.246,0,0,0,3.242-3.242V539.941a3.136,3.136,0,0,0-.95-2.283A3.064,3.064,0,0,0,457.848,536.7Zm-.119,23.242h-10.25V540.1h10.25ZM72.738,563.3a1.671,1.671,0,0,1-1.212-.5,1.6,1.6,0,0,1-.51-1.182v-8.49a1.859,1.859,0,0,1,.6-1.482l6.209-5.252V540.14H67.653a1.7,1.7,0,0,1-2.873.951,1.621,1.621,0,0,1-.49-1.191v-1.441a1.674,1.674,0,0,1,1.682-1.682H81.226v10.33a1.727,1.727,0,0,1-.621,1.361l-6.186,5.285v7.828a1.688,1.688,0,0,1-.491,1.211A1.59,1.59,0,0,1,72.738,563.3ZM199,537.728a3.22,3.22,0,0,1,1,2.373v8.188a3.4,3.4,0,0,1-3.4,3.4H186.387v8.248h11.932a1.636,1.636,0,0,1,1.182.49,1.669,1.669,0,0,1,0,2.383,1.628,1.628,0,0,1-1.182.49H183.024V551.691a3.3,3.3,0,0,1,.991-2.4,3.226,3.226,0,0,1,2.372-1H196.6V540.1H184.587a1.61,1.61,0,0,1-1.2-.492,1.715,1.715,0,0,1,0-2.381,1.608,1.608,0,0,1,1.2-.49H196.6A3.3,3.3,0,0,1,199,537.728ZM434.109,536.7h-10.49a3.282,3.282,0,0,0-3.242,3.244V560.06a3.229,3.229,0,0,0,3.242,3.242H434.07a3.246,3.246,0,0,0,3.242-3.242V539.941a3.136,3.136,0,0,0-.95-2.283A3.064,3.064,0,0,0,434.109,536.7Zm-.119,23.242H423.74V540.1h10.25ZM222.74,537.728a3.22,3.22,0,0,1,1,2.373v8.188a3.4,3.4,0,0,1-3.4,3.4H210.127v8.248h11.932a1.636,1.636,0,0,1,1.182.49,1.669,1.669,0,0,1,0,2.383,1.628,1.628,0,0,1-1.182.49H206.763V551.691a3.3,3.3,0,0,1,.991-2.4,3.226,3.226,0,0,1,2.372-1h10.211V540.1H208.326a1.61,1.61,0,0,1-1.2-.492,1.715,1.715,0,0,1,0-2.381,1.608,1.608,0,0,1,1.2-.49h12.012A3.3,3.3,0,0,1,222.74,537.728ZM246.088,551.7a1.682,1.682,0,0,1-1.191,2.873v7.047a1.6,1.6,0,0,1-.5,1.191,1.677,1.677,0,0,1-2.863-1.191v-7.006H231.4v-16.2a1.743,1.743,0,0,1,1.722-1.723,1.6,1.6,0,0,1,1.182.51,1.677,1.677,0,0,1,.5,1.213V551.21h6.727v-9.85a1.687,1.687,0,0,1,.49-1.211,1.647,1.647,0,0,1,2.383,0,1.691,1.691,0,0,1,.49,1.211v9.85A1.626,1.626,0,0,1,246.088,551.7Zm95.737.041a1.622,1.622,0,0,1,.491,1.191v8.688a1.675,1.675,0,0,1-1.682,1.682H327.061a1.589,1.589,0,0,1-1.19-.51,1.688,1.688,0,0,1-.491-1.211,1.569,1.569,0,0,1,.491-1.162,1.637,1.637,0,0,1,1.19-.48h5.166V540.1h-5.086a1.682,1.682,0,1,1,0-3.363h8.449v23.2h3.363v-7.006a1.633,1.633,0,0,1,.49-1.182,1.6,1.6,0,0,1,1.191-.5A1.624,1.624,0,0,1,341.826,551.742Zm-24.49-1.771a5,5,0,0,1,1.4,3.4v6.566a3.218,3.218,0,0,1-1,2.373,3.293,3.293,0,0,1-2.4.99H303.443a1.682,1.682,0,1,1,0-3.363h11.852v-6.566a1.688,1.688,0,0,0-.491-1.211,1.59,1.59,0,0,0-1.19-.51h-6.768a1.637,1.637,0,0,1-1.19-.48,1.687,1.687,0,0,1,1.19-2.883h6.807a1.636,1.636,0,0,0,1.182-.49,1.61,1.61,0,0,0,.5-1.191V540.1H303.322a1.682,1.682,0,1,1,0-3.363h12.012A3.364,3.364,0,0,1,318.7,540.1v6.3A4.819,4.819,0,0,1,317.336,549.97Zm-141.154,9.969v-8.248a3.2,3.2,0,0,0-1-2.393,3.286,3.286,0,0,0-2.363-.971v-9.908a1.674,1.674,0,0,0-1.682-1.682h-6.846a1.608,1.608,0,0,0-1.2.49,1.636,1.636,0,0,0-.48,1.191v9.908a3.287,3.287,0,0,0-2.4.992,3.217,3.217,0,0,0-1,2.371V559.9a3.335,3.335,0,0,0,.991,2.361,3.2,3.2,0,0,0,2.413,1.041h10.209a3.4,3.4,0,0,0,3.363-3.363ZM165.972,540.1h3.482v8.227h-3.482Zm6.846,19.838H162.609v-8.248h10.209Zm237.393-11.611v-9.908a1.674,1.674,0,0,0-1.682-1.682h-6.846a1.608,1.608,0,0,0-1.2.49,1.636,1.636,0,0,0-.48,1.191v9.908a3.287,3.287,0,0,0-2.4.992,3.217,3.217,0,0,0-1,2.371V559.9a3.335,3.335,0,0,0,.991,2.361A3.2,3.2,0,0,0,400,563.3h10.209a3.4,3.4,0,0,0,3.363-3.363v-8.248a3.2,3.2,0,0,0-1-2.393A3.286,3.286,0,0,0,410.211,548.328Zm-6.846-8.227h3.482v8.227h-3.482Zm6.846,19.838H400v-8.248h10.209ZM127.783,537.728a3.221,3.221,0,0,1,1,2.373v8.188a3.4,3.4,0,0,1-3.4,3.4H115.17v8.248H127.1a1.636,1.636,0,0,1,1.182.49,1.669,1.669,0,0,1,0,2.383,1.628,1.628,0,0,1-1.182.49H111.807V551.691a3.3,3.3,0,0,1,.991-2.4,3.225,3.225,0,0,1,2.372-1h10.21V540.1H113.369a1.61,1.61,0,0,1-1.2-.492,1.715,1.715,0,0,1,0-2.381,1.608,1.608,0,0,1,1.2-.49H125.38A3.293,3.293,0,0,1,127.783,537.728ZM362.892,536.7H352.4a3.282,3.282,0,0,0-3.242,3.244V560.06A3.229,3.229,0,0,0,352.4,563.3h10.451a3.246,3.246,0,0,0,3.242-3.242V539.941a3.136,3.136,0,0,0-.95-2.283A3.064,3.064,0,0,0,362.892,536.7Zm-.119,23.242h-10.25V540.1h10.25ZM160.356,655.378l3.964-13.471a.961.961,0,0,1,1-.732.857.857,0,0,1,.924.621l3.926,13.676a1,1,0,0,1,.047.293.959.959,0,0,1-.281.7.878.878,0,0,1-.645.287.927.927,0,0,1-.983-.715l-.778-2.672h-4.508l-.857,2.862a.593.593,0,0,1-.295.355,1.018,1.018,0,0,1-.565.169.953.953,0,0,1-.718-.293.987.987,0,0,1-.283-.715A1.215,1.215,0,0,1,160.356,655.378Zm4.945-9.645-1.688,5.637h3.331Zm19.406-3.551V656.75h-2.641l-5.3-12.094v11.109a.984.984,0,1,1-1.969,0v-14.59h2.6l5.32,12.07V642.183a1.021,1.021,0,0,1,1.008-1.008.94.94,0,0,1,.7.293A.983.983,0,0,1,184.707,642.183Zm14.5,0V656.75h-2.641l-5.3-12.094v11.109a.984.984,0,1,1-1.969,0v-14.59h2.6l5.32,12.07V642.183a1.021,1.021,0,0,1,1.008-1.008.94.94,0,0,1,.7.293A.983.983,0,0,1,199.2,642.183Zm4.641,13.2,3.964-13.471a.961.961,0,0,1,1-.732.857.857,0,0,1,.924.621l3.926,13.676a1,1,0,0,1,.047.293.959.959,0,0,1-.281.7.878.878,0,0,1-.645.287.927.927,0,0,1-.983-.715l-.778-2.672H206.5l-.857,2.862a.593.593,0,0,1-.295.355,1.018,1.018,0,0,1-.565.169.953.953,0,0,1-.718-.293.987.987,0,0,1-.283-.715A1.215,1.215,0,0,1,203.844,655.378Zm4.945-9.645-1.688,5.637h3.331Zm23.988,11.016V642.16a.984.984,0,0,1,1.969,0v12.621h6.961a.989.989,0,0,1,.709.287.963.963,0,0,1,0,1.395.989.989,0,0,1-.709.287ZM247.25,653.8V642.183a.978.978,0,0,1,.293-.709.981.981,0,0,1,1.676.686V653.8a.914.914,0,0,0,.293.674.955.955,0,0,0,.691.287h4.031a.959.959,0,0,0,.7-.281.917.917,0,0,0,.287-.68V642.183a.983.983,0,0,1,.287-.715.976.976,0,0,1,1.395,0,.983.983,0,0,1,.287.715v11.59a2.873,2.873,0,0,1-.873,2.1,2.831,2.831,0,0,1-2.08.879H250.2a2.961,2.961,0,0,1-2.953-2.953Zm24.434-11.613V656.75h-2.641l-5.3-12.094v11.109a.984.984,0,1,1-1.969,0v-14.59h2.6l5.32,12.07V642.183a1.021,1.021,0,0,1,1.008-1.008.94.94,0,0,1,.7.293A.983.983,0,0,1,271.684,642.183Zm4.535,13.582V642.16a.955.955,0,0,1,.287-.691.987.987,0,0,1,1.682.691v5.8h6v-5.8a.955.955,0,0,1,.287-.691.976.976,0,0,1,1.395,0,.983.983,0,0,1,.287.715v13.582a.937.937,0,0,1-.3.691.973.973,0,0,1-1.67-.691v-5.836h-5.977v5.836a.937.937,0,0,1-.3.691.978.978,0,0,1-.709.293.955.955,0,0,1-.691-.287A.94.94,0,0,1,276.219,655.765Zm14.52-1.969V642.183a.978.978,0,0,1,.293-.709.981.981,0,0,1,1.676.686V653.8a.914.914,0,0,0,.293.674.955.955,0,0,0,.691.287h4.031a.959.959,0,0,0,.7-.281.917.917,0,0,0,.287-.68V642.183a.983.983,0,0,1,.287-.715.976.976,0,0,1,1.395,0,.983.983,0,0,1,.287.715v11.59a2.873,2.873,0,0,1-.873,2.1,2.831,2.831,0,0,1-2.08.879h-4.031a2.961,2.961,0,0,1-2.953-2.953ZM45.612,631.1l.384,1.7h.016l.416-1.729,2.7-7.664H50.46l-4.24,11.375h-.592L41.308,623.4h1.456Zm10.774.4H52.278l-1.114,3.1H49.836l4.24-11.375h.608L58.94,634.6H57.532Zm-3.677-1.152h3.279l-1.242-3.408-.4-1.7h-.016l-.4,1.729ZM67.051,634.6H60.427V623.4h1.328v10.016h5.3ZM69,623.4h1.328v11.2H69Zm4.351,0c.2-.033.429-.057.68-.072s.512-.027.784-.031l.8-.018c.261,0,.5-.008.728-.008a5.954,5.954,0,0,1,2.328.416,4.324,4.324,0,0,1,1.624,1.16,4.83,4.83,0,0,1,.952,1.785,8.372,8.372,0,0,1,.016,4.471,5.257,5.257,0,0,1-.936,1.857,4.616,4.616,0,0,1-1.664,1.295,5.716,5.716,0,0,1-2.48.488c-.17,0-.392,0-.664-.008s-.552-.016-.84-.033-.555-.029-.8-.039a3.694,3.694,0,0,1-.528-.049Zm3.024,1.057h-.456c-.166,0-.328,0-.488.016s-.307.021-.44.031-.237.021-.312.031V633.5a1.929,1.929,0,0,0,.3.023c.149.006.3.012.464.016l.464.018c.149,0,.25.008.3.008a4.144,4.144,0,0,0,1.88-.385,3.244,3.244,0,0,0,1.216-1.031,4.16,4.16,0,0,0,.648-1.488,7.747,7.747,0,0,0,.192-1.736,7.275,7.275,0,0,0-.176-1.576,4.13,4.13,0,0,0-.608-1.432,3.368,3.368,0,0,0-1.16-1.049A3.715,3.715,0,0,0,76.379,624.457Zm18.448.127H91.339V634.6H90.011V624.583H86.524V623.4h8.3Zm8.353,4.881H97.8V634.6H96.476V623.4H97.8v4.879h5.376V623.4h1.327v11.2H103.18Zm4.048-5.953q.608-.111,1.4-.176t1.448-.064a6.033,6.033,0,0,1,1.4.16,3.25,3.25,0,0,1,1.168.529,2.677,2.677,0,0,1,.808.959,3.529,3.529,0,0,1-.416,3.568,3.485,3.485,0,0,1-1.824,1.088l.769.592,2.784,4.432h-1.553l-3.088-4.832-1.567-.24V634.6h-1.328Zm2.88.912h-.433c-.149,0-.293.006-.432.016s-.27.021-.392.033a1.54,1.54,0,0,0-.3.047v4.129H109.8a2.936,2.936,0,0,0,1.824-.545,1.985,1.985,0,0,0,.721-1.7,1.875,1.875,0,0,0-.593-1.424A2.3,2.3,0,0,0,110.108,624.423Zm13.071-1.023h1.28v7.473a5.14,5.14,0,0,1-.265,1.742,3.1,3.1,0,0,1-.752,1.209,2.986,2.986,0,0,1-1.176.7,4.861,4.861,0,0,1-1.52.225,4.378,4.378,0,0,1-2.992-.9,3.453,3.453,0,0,1-1.008-2.719V623.4h1.328v7.1a5.224,5.224,0,0,0,.168,1.432,2.266,2.266,0,0,0,.5.945,1.939,1.939,0,0,0,.84.52,3.869,3.869,0,0,0,1.176.16,2.224,2.224,0,0,0,1.856-.713,3.834,3.834,0,0,0,.56-2.344Z"/><rect class="o" x="35.871" y="442" width="86" height="78" rx="12.301" ry="12.301"/><rect class="p" x="37.871" y="444" width="82" height="74" rx="11" ry="11"/><path class="q" d="M65.925,461a12.969,12.969,0,0,0,1.856,16.285l.73.715-.73.715a13,13,0,1,0,18.179,0l-.73-.715.73-.715a13.079,13.079,0,0,0,2.657-3.716l.271-.57h30.982v2H90.12a15.055,15.055,0,0,1-2.094,3,14.916,14.916,0,0,1,3.794,9h28.051v2H91.821a14.978,14.978,0,0,1-7.488,12h35.538v2h-42v15h-2V503h-38v-2H69.41a14.978,14.978,0,0,1-7.488-12H37.871v-2H61.922a14.916,14.916,0,0,1,3.8-9,15.022,15.022,0,0,1-2.1-3H37.871v-2H62.745a14.86,14.86,0,0,1,.867-12H37.871v-2h38V444h2v15h42v2Z"/><path class="r" d="M370.87,232a40,40,0,1,0-40,40A40,40,0,0,0,370.87,232Z"/><g class="s"><path d="M328.318,260.467l-15.807-22.36,15.807,9.255Zm0-16.382L312.4,234.763l15.914-6.972Zm0-17.413-15.4,6.746,15.4-25.876Zm1.026-19.138,15.618,25.981-15.618-6.842Zm0,52.934v-13.1l15.807-9.255Zm0-16.381V227.792l15.926,6.976Z"/></g><path class="i" d="M330.318,258.467l-15.807-22.36,15.807,9.255Zm0-16.382L314.4,232.763l15.914-6.972Zm0-17.413-15.4,6.746,15.4-25.876Zm1.026-19.138,15.618,25.981-15.618-6.842Zm0,52.934v-13.1l15.807-9.255Zm0-16.381V225.792l15.926,6.976Z"/><path class="t" d="M306.871,40a8,8,0,1,0-8,8A8,8,0,0,0,306.871,40Zm-11.788,0a3.789,3.789,0,1,1,3.788,3.788A3.789,3.789,0,0,1,295.082,40Z"/><path class="u" d="M370.871,183.577a7.577,7.577,0,1,1,7.577,7.577A7.577,7.577,0,0,1,370.871,183.577Z"/><path class="v" d="M347.717,132.423A3.577,3.577,0,1,1,351.293,136,3.577,3.577,0,0,1,347.717,132.423Z"/><path class="w" d="M434.66,742a16,16,0,1,0-16,16A16,16,0,0,0,434.66,742Zm-23.577,0a7.577,7.577,0,1,1,7.577,7.577A7.577,7.577,0,0,1,411.083,742Z"/><path class="x" d="M339.083,777.577a3.577,3.577,0,1,1,3.577,3.577A3.577,3.577,0,0,1,339.083,777.577Z"/><path class="y" d="M202.871,66.756a3.577,3.577,0,1,1,3.577,3.577A3.577,3.577,0,0,1,202.871,66.756Z"/><path class="z" d="M170.871,184.423A7.577,7.577,0,1,1,178.447,192,7.577,7.577,0,0,1,170.871,184.423Z"/><path class="aa" d="M275.929,893.577a7.577,7.577,0,1,1,7.577,7.577A7.577,7.577,0,0,1,275.929,893.577Z"/><path class="ab" d="M394.87,88a24,24,0,1,0-24,24A24,24,0,0,0,394.87,88Z"/><g class="s"><path d="M355.64,88.32a5.838,5.838,0,0,1,4.04-7.027,5.489,5.489,0,0,1,6.91,3.834,2.287,2.287,0,0,0,2.879,1.6,2.433,2.433,0,0,0,1.7-2.876h0l0,0c-.005-.018-.011-.036-.015-.054a5.835,5.835,0,0,1,4.04-7.026A5.489,5.489,0,0,1,382.1,80.6a5.836,5.836,0,0,1-4.04,7.027,5.64,5.64,0,0,1-2.967.061l0,0h0a2.434,2.434,0,0,0-2.837,1.759,2.284,2.284,0,0,0,1.661,2.84,5.485,5.485,0,0,1,3.988,6.819,5.841,5.841,0,0,1-6.94,4.192,5.484,5.484,0,0,1-3.987-6.819,5.848,5.848,0,0,1,1.5-2.605h0a2.345,2.345,0,1,0-3.393-3.235l0-.009a5.855,5.855,0,0,1-2.537,1.517A5.49,5.49,0,0,1,355.64,88.32Z"/></g><path class="i" d="M357.64,86.32a5.838,5.838,0,0,1,4.04-7.027,5.489,5.489,0,0,1,6.91,3.834,2.287,2.287,0,0,0,2.879,1.6,2.433,2.433,0,0,0,1.7-2.876h0l0,0c-.005-.018-.011-.036-.015-.054a5.835,5.835,0,0,1,4.04-7.026A5.489,5.489,0,0,1,384.1,78.6a5.836,5.836,0,0,1-4.04,7.027,5.64,5.64,0,0,1-2.967.061l0,0h0a2.434,2.434,0,0,0-2.837,1.759,2.284,2.284,0,0,0,1.661,2.84,5.485,5.485,0,0,1,3.988,6.819,5.841,5.841,0,0,1-6.94,4.192,5.484,5.484,0,0,1-3.987-6.819,5.848,5.848,0,0,1,1.5-2.605h0a2.345,2.345,0,1,0-3.393-3.235l0-.009a5.855,5.855,0,0,1-2.537,1.517A5.49,5.49,0,0,1,357.64,86.32Z"/><path class="ac" d="M218.87,304a40,40,0,0,0-40-40v6a4,4,0,0,1-8,0v-5.2a40,40,0,1,0,48,39.2Z"/><g class="s"><path d="M192.871,328.3H161.617l2.627-12.54-5.108,3.5,1.241-6.863,5.343-3.678,5.24-25.013h9.757l-3.608,17.175,12.7-8.742-1.488,7.111-12.7,8.707-2.513,11.965h21.5Z"/></g><path class="i" d="M194.871,326.3H163.617l2.627-12.54-5.108,3.5,1.241-6.863,5.343-3.678,5.24-25.013h9.757l-3.608,17.175,12.7-8.742-1.488,7.111-12.7,8.707-2.513,11.965h21.5Z"/><path class="ad" d="M254.871,232a16,16,0,1,0-16,16A16,16,0,0,0,254.871,232Zm-23.577,0a7.577,7.577,0,1,1,7.577,7.577A7.577,7.577,0,0,1,231.294,232Z"/><path class="ae" d="M195.083,846a16,16,0,1,0-16,16A16,16,0,0,0,195.083,846Zm-23.577,0a7.577,7.577,0,1,1,7.577,7.577A7.577,7.577,0,0,1,171.506,846Z"/><path class="af" d="M286.869,392a40,40,0,0,1-16-76.665V300.388a4,4,0,0,1,8,0v15.225a4,4,0,0,0,8,0V284a4,4,0,0,1,8,0v28.8a40,40,0,0,1-8,79.2Z"/><g class="s"><path d="M300.9,353.836a11.971,11.971,0,0,0-4.084-1.776,11.1,11.1,0,0,0,2.86-2.354,8.91,8.91,0,0,0,1.315-3.942c.069-.947.231-4.915-2.86-7.2-2.391-1.766-5.131-2.468-8.811-2.7v-8.007h-4.937v7.91h-3.759v-7.91H275.69v7.91h-9.712V340.9h2.854c.779,0,2.163.087,2.751.745s.692,1,.692,2.284v20.426a2,2,0,0,1-.508,1.476c-.415.392-.83.485-1.822.485h-2.953l-1.015,5.929h9.711v7.89h4.937v-7.89h3.76v7.89h4.937v-8.02c1.275-.075,2.465-.171,3.159-.262a16.417,16.417,0,0,0,7.567-2.629c2.975-2.076,3.644-5.33,3.712-8.605S302.585,355.106,300.9,353.836Zm-20.277-2.952v-9.526s1.569-.139,3.114-.116a15.706,15.706,0,0,1,4.937.692,4.268,4.268,0,0,1,3.275,3.946,3.866,3.866,0,0,1-2.123,3.759,12.046,12.046,0,0,1-5.1,1.246C282.933,350.954,280.627,350.884,280.626,350.884Zm11.05,14.071a15.667,15.667,0,0,1-5.582,1.339c-2.192.161-5.468.091-5.468.091V355.8s3.137-.162,5.582,0a15.805,15.805,0,0,1,5.42,1.246,4.368,4.368,0,0,1,.047,7.911Z"/></g><path class="i" d="M302.9,351.836a11.971,11.971,0,0,0-4.084-1.776,11.1,11.1,0,0,0,2.86-2.354,8.91,8.91,0,0,0,1.315-3.942c.069-.947.231-4.915-2.86-7.2-2.391-1.766-5.131-2.468-8.811-2.7v-8.007h-4.937v7.91h-3.759v-7.91H277.69v7.91h-9.712V338.9h2.854c.779,0,2.163.087,2.751.745s.692,1,.692,2.284v20.426a2,2,0,0,1-.508,1.476c-.415.392-.83.485-1.822.485h-2.953l-1.015,5.929h9.711v7.89h4.937v-7.89h3.76v7.89h4.937v-8.02c1.275-.075,2.465-.171,3.159-.262a16.417,16.417,0,0,0,7.567-2.629c2.975-2.076,3.644-5.33,3.712-8.605S304.585,353.106,302.9,351.836Zm-20.277-2.952v-9.526s1.569-.139,3.114-.116a15.706,15.706,0,0,1,4.937.692,4.268,4.268,0,0,1,3.275,3.946,3.866,3.866,0,0,1-2.123,3.759,12.046,12.046,0,0,1-5.1,1.246C284.933,348.954,282.627,348.884,282.626,348.884Zm11.05,14.071a15.667,15.667,0,0,1-5.582,1.339c-2.192.161-5.468.091-5.468.091V353.8s3.137-.162,5.582,0a15.805,15.805,0,0,1,5.42,1.246,4.368,4.368,0,0,1,.047,7.911Z"/><path class="c" d="M182.871,247.862h0a4.012,4.012,0,0,1,4,4v16.525a4.012,4.012,0,0,1-4,4h0a4.012,4.012,0,0,1-4-4V251.862A4.012,4.012,0,0,1,182.871,247.862Zm-20-19.659v40.184a4.012,4.012,0,0,0,4,4h0a4.012,4.012,0,0,0,4-4V228.2a4.012,4.012,0,0,0-4-4h0A4.012,4.012,0,0,0,162.871,228.2Z"/><path class="ag" d="M290.87,136a40,40,0,0,0-24-36.665V84.388a4,4,0,0,0-8,0V99.612a4,4,0,1,1-8,0V68a4,4,0,0,0-8,0V96.8a40,40,0,1,0,48,39.2Z"/><g class="s"><path d="M228.825,134.969h15.969l-1.848,6.006H226.978Zm41.368-2.832c-.635,2.294-2.7,9.18-3.548,11.622a10.461,10.461,0,0,1-4.412,5.663c-2,1.172-2.751,1.663-5.549,1.663H228.028l2.018-6.54H257l4.026-13.092H234.286l2.019-6.541h29.836a4.542,4.542,0,0,1,4.052,2.342C271.072,128.963,270.828,129.842,270.193,132.138Z"/></g><path class="i" d="M230.825,132.969h15.969l-1.848,6.006H228.978Zm41.368-2.832c-.635,2.294-2.7,9.18-3.548,11.622a10.461,10.461,0,0,1-4.412,5.663c-2,1.172-2.751,1.663-5.549,1.663H230.028l2.018-6.54H259l4.026-13.092H236.286l2.019-6.541h29.836a4.542,4.542,0,0,1,4.052,2.342C273.072,126.963,272.828,127.842,272.193,130.138Z"/><path class="ah" d="M211.083,794.8V673.2a3.209,3.209,0,0,0-3.2-3.2h-12.55V642a4,4,0,0,0-8,0v40a4,4,0,0,1-8,0V654a4,4,0,0,0-8,0v16H150.283a3.209,3.209,0,0,0-3.2,3.2V794.8a3.209,3.209,0,0,0,3.2,3.2h57.6A3.209,3.209,0,0,0,211.083,794.8Z"/><path class="h" d="M155.083,734a24,24,0,1,1,24,24A24,24,0,0,1,155.083,734Zm16.25-52h0a4,4,0,0,0-4-4h-8a4,4,0,0,0-4,4v24a4,4,0,0,0,4,4h0a4,4,0,0,0,4-4V688a2,2,0,0,1,2-2h2A4,4,0,0,0,171.333,682Zm24,0v24a4,4,0,0,0,4,4h0a4,4,0,0,0,4-4V682a4,4,0,0,0-4-4h0A4,4,0,0,0,195.333,682Zm4,76h0a4,4,0,0,0-4,4v18a2,2,0,0,1-2,2h-28a2,2,0,0,1-2-2V762a4,4,0,0,0-4-4h0a4,4,0,0,0-4,4v24a4,4,0,0,0,4,4h40a4,4,0,0,0,4-4V762A4,4,0,0,0,199.333,758Z"/><path class="i" d="M177.518,745.813a.654.654,0,0,1-.188-.482v-1.866a8.461,8.461,0,0,1-3.192-1,5.322,5.322,0,0,1-1.978-1.879,4.972,4.972,0,0,1-.713-2.374.552.552,0,0,1,.551-.56h3.329a.966.966,0,0,1,.5.108,1.769,1.769,0,0,1,.4.373,2.936,2.936,0,0,0,2.855,1.465,4.12,4.12,0,0,0,2.091-.438,1.355,1.355,0,0,0,.739-1.213,1.2,1.2,0,0,0-.388-.92,3.408,3.408,0,0,0-1.2-.64,23.451,23.451,0,0,0-2.391-.627,10.046,10.046,0,0,1-4.532-1.946,4.68,4.68,0,0,1-1.5-3.732,5.085,5.085,0,0,1,1.453-3.667,6.693,6.693,0,0,1,3.98-1.879v-1.866a.654.654,0,0,1,.188-.482.6.6,0,0,1,.438-.187h2.178a.593.593,0,0,1,.45.187.679.679,0,0,1,.175.482v1.918a7.644,7.644,0,0,1,2.855,1.135,6.09,6.09,0,0,1,1.84,1.866,4.372,4.372,0,0,1,.689,2.04.611.611,0,0,1-.15.412.474.474,0,0,1-.376.174h-3.506a.915.915,0,0,1-.851-.48,1.614,1.614,0,0,0-.789-.946,2.917,2.917,0,0,0-1.54-.388,2.823,2.823,0,0,0-1.627.4,1.337,1.337,0,0,0-.577,1.172,1.354,1.354,0,0,0,.752,1.215,10.829,10.829,0,0,0,2.779.892,15.708,15.708,0,0,1,3.755,1.133,4.712,4.712,0,0,1,2.053,1.76,5.226,5.226,0,0,1,.651,2.734,5.078,5.078,0,0,1-1.615,3.867,7.655,7.655,0,0,1-4.344,1.892v1.866a.679.679,0,0,1-.175.482.593.593,0,0,1-.45.187h-2.178A.6.6,0,0,1,177.518,745.813Z"/><path class="ai" d="M255.082,926a32.013,32.013,0,0,0-24-30.991v2.6a4,4,0,0,1-8,0V894h0a32,32,0,1,0,32,32Z"/><g class="s"><path d="M233.757,913.437H223.61a1.888,1.888,0,0,0-1.335.553l-15.2,15.2a1.888,1.888,0,0,0,0,2.67l10.147,10.147a1.888,1.888,0,0,0,2.67,0l15.2-15.2a1.888,1.888,0,0,0,.553-1.335V915.326A1.888,1.888,0,0,0,233.757,913.437Zm-2.918,8.011a2.266,2.266,0,1,1,0-3.2A2.266,2.266,0,0,1,230.839,921.448Z"/></g><path class="i" d="M235.757,911.437H225.61a1.888,1.888,0,0,0-1.335.553l-15.2,15.2a1.888,1.888,0,0,0,0,2.67l10.147,10.147a1.888,1.888,0,0,0,2.67,0l15.2-15.2a1.888,1.888,0,0,0,.553-1.335V913.326A1.888,1.888,0,0,0,235.757,911.437Zm-2.918,8.011a2.266,2.266,0,1,1,0-3.2A2.266,2.266,0,0,1,232.839,919.448Z"/><path class="aj" d="M351.082,990a32.013,32.013,0,0,0-24-30.991v2.6a4,4,0,0,1-8,0V958h0a32,32,0,1,0,32,32Z"/><g class="s"><path d="M336.315,989.365a1.5,1.5,0,0,0-.872-.261H325.27a1.582,1.582,0,0,1-1.343-.745l-8.7-13.953a1.582,1.582,0,0,0-1.343-.745h-.823a1.582,1.582,0,0,0-1.511,2.053l3.534,11.338a1.582,1.582,0,0,1-1.511,2.053h-7.648a1.582,1.582,0,0,1-1.267-.634l-1.939-2.592a1.582,1.582,0,0,0-1.267-.634h0a1.582,1.582,0,0,0-1.522,2.016l1.228,4.307a1.582,1.582,0,0,1,0,.867l-1.228,4.307a1.582,1.582,0,0,0,1.522,2.016h0a1.582,1.582,0,0,0,1.267-.634l1.939-2.592a1.582,1.582,0,0,1,1.267-.634h7.648a1.582,1.582,0,0,1,1.511,2.053l-3.534,11.338a1.582,1.582,0,0,0,1.511,2.053h.823a1.582,1.582,0,0,0,1.343-.745l8.7-13.953a1.582,1.582,0,0,1,1.343-.745h9.713C337.409,994.9,339.358,991.544,336.315,989.365Z"/></g><path class="i" d="M338.315,987.365a1.5,1.5,0,0,0-.872-.261H327.27a1.582,1.582,0,0,1-1.343-.745l-8.7-13.953a1.582,1.582,0,0,0-1.343-.745h-.823a1.582,1.582,0,0,0-1.511,2.053l3.534,11.338a1.582,1.582,0,0,1-1.511,2.053h-7.648a1.582,1.582,0,0,1-1.267-.634l-1.939-2.592a1.582,1.582,0,0,0-1.267-.634h0a1.582,1.582,0,0,0-1.522,2.016l1.228,4.307a1.582,1.582,0,0,1,0,.867l-1.228,4.307a1.582,1.582,0,0,0,1.522,2.016h0a1.582,1.582,0,0,0,1.267-.634l1.939-2.592a1.582,1.582,0,0,1,1.267-.634h7.648a1.582,1.582,0,0,1,1.511,2.053l-3.534,11.338a1.582,1.582,0,0,0,1.511,2.053h.823a1.582,1.582,0,0,0,1.343-.745l8.7-13.953a1.582,1.582,0,0,1,1.343-.745h9.713C339.409,992.9,341.358,989.544,338.315,987.365Z"/><path class="ak" d="M403.083,685.8a40,40,0,0,0-40-40v12a4,4,0,0,1-8,0V646.6a40,40,0,1,0,48,39.2Z"/><g class="s"><path d="M352.871,697.687a3.751,3.751,0,1,0,3.751,3.751A3.751,3.751,0,0,0,352.871,697.687Zm18,0a3.751,3.751,0,1,0,3.751,3.751A3.751,3.751,0,0,0,370.871,697.687Zm9.921-17.842-3.037,9.11a1.518,1.518,0,0,1-1.44,1.038H350.12a.759.759,0,0,0-.72,1l.506,1.518a.759.759,0,0,0,.72.519H374.29a1.518,1.518,0,0,1,1.44,2h0a1.518,1.518,0,0,1-1.44,1.038H349.149a1.518,1.518,0,0,1-1.44-1.038l-5.554-16.663a.759.759,0,0,0-.72-.519H334.39a1.519,1.519,0,0,1-1.511-1.668,1.562,1.562,0,0,1,1.576-1.369h9.625a1.518,1.518,0,0,1,1.358.839l1.1,2.2h32.815A1.518,1.518,0,0,1,380.792,679.845Z"/></g><path class="i" d="M354.871,695.687a3.751,3.751,0,1,0,3.751,3.751A3.751,3.751,0,0,0,354.871,695.687Zm18,0a3.751,3.751,0,1,0,3.751,3.751A3.751,3.751,0,0,0,372.871,695.687Zm9.921-17.842-3.037,9.11a1.518,1.518,0,0,1-1.44,1.038H352.12a.759.759,0,0,0-.72,1l.506,1.518a.759.759,0,0,0,.72.519H376.29a1.518,1.518,0,0,1,1.44,2h0a1.518,1.518,0,0,1-1.44,1.038H351.149a1.518,1.518,0,0,1-1.44-1.038l-5.554-16.663a.759.759,0,0,0-.72-.519H336.39a1.519,1.519,0,0,1-1.511-1.668,1.562,1.562,0,0,1,1.576-1.369h9.625a1.518,1.518,0,0,1,1.358.839l1.1,2.2h32.815A1.518,1.518,0,0,1,382.792,677.845Z"/><path class="d" d="M367.084,629.658h0a4.012,4.012,0,0,1,4,4v16.525a4.012,4.012,0,0,1-4,4h0a4.012,4.012,0,0,1-4-4V633.658A4.012,4.012,0,0,1,367.084,629.658Zm-20-51.659v16.525a4.012,4.012,0,0,0,4,4h0a4.012,4.012,0,0,0,4-4V578a4.012,4.012,0,0,0-4-4h0A4.012,4.012,0,0,0,347.084,578Zm0,32v40.184a4.012,4.012,0,0,0,4,4h0a4.012,4.012,0,0,0,4-4V610a4.012,4.012,0,0,0-4-4h0A4.012,4.012,0,0,0,347.084,610Z"/><path class="al" d="M339.083,814a40,40,0,0,0-40-40v4a4,4,0,0,1-8,0v-3.2a40,40,0,1,0,48,39.2Z"/><g class="s"><path d="M316.85,810.4a.81.81,0,0,0-.6-.234H304.792a5.833,5.833,0,1,0,0-11.667,5.275,5.275,0,0,0-4.375,2.005l-3.334,4.3-3.333-4.3a5.275,5.275,0,0,0-4.375-2.005,5.833,5.833,0,1,0,0,11.667H277.916a.8.8,0,0,0-.833.833v8.334a.8.8,0,0,0,.833.833h2.5V831a2.49,2.49,0,0,0,2.5,2.5H311.25a2.49,2.49,0,0,0,2.5-2.5V820.166h2.5a.8.8,0,0,0,.833-.833V811A.81.81,0,0,0,316.85,810.4ZM303,802.64a2.228,2.228,0,0,1,1.8-.807,2.5,2.5,0,1,1,0,5h-5.052Zm-13.621,4.193a2.5,2.5,0,1,1,0-5,2.227,2.227,0,0,1,1.8.807l3.281,4.193h-5.078Zm11.876,8.334v13.646a1.18,1.18,0,0,1-.469,1,1.944,1.944,0,0,1-1.2.352h-5a1.943,1.943,0,0,1-1.2-.352,1.179,1.179,0,0,1-.469-1V810.166h8.334Z"/></g><path class="i" d="M318.85,808.4a.81.81,0,0,0-.6-.234H306.792a5.833,5.833,0,1,0,0-11.667,5.275,5.275,0,0,0-4.375,2.005l-3.334,4.3-3.333-4.3a5.275,5.275,0,0,0-4.375-2.005,5.833,5.833,0,1,0,0,11.667H279.916a.8.8,0,0,0-.833.833v8.334a.8.8,0,0,0,.833.833h2.5V829a2.49,2.49,0,0,0,2.5,2.5H313.25a2.49,2.49,0,0,0,2.5-2.5V818.166h2.5a.8.8,0,0,0,.833-.833V809A.81.81,0,0,0,318.85,808.4ZM305,800.64a2.228,2.228,0,0,1,1.8-.807,2.5,2.5,0,1,1,0,5h-5.052Zm-13.621,4.193a2.5,2.5,0,1,1,0-5,2.227,2.227,0,0,1,1.8.807l3.281,4.193h-5.078Zm11.876,8.334v13.646a1.18,1.18,0,0,1-.469,1,1.944,1.944,0,0,1-1.2.352h-5a1.943,1.943,0,0,1-1.2-.352,1.179,1.179,0,0,1-.469-1V808.166h8.334Z"/></g></svg>