<svg xmlns="http://www.w3.org/2000/svg" xmlns:xlink="http://www.w3.org/1999/xlink" viewBox="0 0 1216 350"><defs><style>.a{isolation:isolate;}.b{fill:#d1dee5;}.c{fill:#12b2a5;}.d{fill:#04df8a;}.e{fill:url(#a);}.f{fill:url(#b);}.g{fill:url(#c);}.h{fill:#007369;}.i{fill:#fff;}.j,.k{fill-rule:evenodd;}.j{fill:url(#d);}.k{opacity:0.25;fill:url(#e);}.l{fill:url(#f);}.m{fill:#19323c;}.n{fill:#e7f1f1;}.o{fill:#0f2028;}.p{fill:url(#g);}.q{fill:#c3d1d8;}.r{fill:url(#h);}.s{opacity:0.2;mix-blend-mode:multiply;}.t{fill:url(#i);}.u{fill:url(#j);}.v{fill:url(#k);}.w{fill:url(#l);}.x{fill:url(#m);}.y{fill:url(#n);}.z{fill:url(#o);}.aa{fill:url(#p);}.ab{fill:url(#q);}.ac{fill:url(#r);}.ad{fill:url(#s);}.ae{fill:url(#t);}.af{fill:url(#u);}.ag{fill:url(#v);}.ah{fill:url(#w);}.ai{fill:url(#x);}.aj{fill:url(#y);}.ak{fill:url(#z);}.al{fill:url(#aa);}</style><linearGradient id="a" x1="896" y1="231" x2="896" y2="183" gradientUnits="userSpaceOnUse"><stop offset="0" stop-color="#12b2a5"/><stop offset="1" stop-color="#04df8a"/></linearGradient><linearGradient id="b" x1="296" y1="71" x2="360" y2="71" xlink:href="#a"/><linearGradient id="c" x1="960" y1="71" x2="1120" y2="71" gradientUnits="userSpaceOnUse"><stop offset="0" stop-color="#04df8a"/><stop offset="1" stop-color="#12b2a5"/></linearGradient><radialGradient id="d" cx="879" cy="336.667" r="536.12" gradientUnits="userSpaceOnUse"><stop offset="0" stop-color="#12b2a5"/><stop offset="1" stop-color="#19323c"/></radialGradient><radialGradient id="e" cx="880.5" cy="347.5" r="511.713" gradientUnits="userSpaceOnUse"><stop offset="0" stop-color="#fff"/><stop offset="0.679" stop-color="#007369"/><stop offset="1" stop-color="#19323c"/></radialGradient><linearGradient id="f" x1="406.982" y1="64.246" x2="406.982" y2="40.754" xlink:href="#a"/><radialGradient id="g" cx="412" cy="144" r="39.051" gradientUnits="userSpaceOnUse"><stop offset="0" stop-color="#e1eaf0"/><stop offset="0.235" stop-color="#e1eaf0"/><stop offset="1" stop-color="#e7f1f1"/></radialGradient><linearGradient id="h" x1="192" y1="127.001" x2="271.999" y2="127.001" xlink:href="#a"/><linearGradient id="i" x1="40" y1="167" x2="40" y2="151" xlink:href="#a"/><linearGradient id="j" x1="183.577" y1="87" x2="183.577" y2="71.846" xlink:href="#a"/><linearGradient id="k" x1="132.423" y1="110.154" x2="132.423" y2="103" xlink:href="#a"/><linearGradient id="l" x1="936" y1="63.423" x2="936" y2="31.423" xlink:href="#a"/><linearGradient id="m" x1="971.577" y1="127" x2="971.577" y2="119.846" xlink:href="#a"/><linearGradient id="n" x1="66.756" y1="255" x2="66.756" y2="247.846" xlink:href="#a"/><linearGradient id="o" x1="184.423" y1="287" x2="184.423" y2="271.846" xlink:href="#a"/><linearGradient id="p" x1="1087.577" y1="190.154" x2="1087.577" y2="175" xlink:href="#a"/><linearGradient id="q" x1="64.001" y1="87" x2="112" y2="87" xlink:href="#a"/><linearGradient id="r" x1="264" y1="279" x2="343.999" y2="279" xlink:href="#a"/><linearGradient id="s" x1="232" y1="235" x2="232" y2="203" xlink:href="#a"/><linearGradient id="t" x1="1040" y1="303" x2="1040" y2="271" xlink:href="#a"/><linearGradient id="u" x1="280" y1="171.001" x2="391.999" y2="171.001" xlink:href="#a"/><linearGradient id="v" x1="64" y1="207.001" x2="176" y2="207.001" xlink:href="#a"/><linearGradient id="w" x1="832" y1="287" x2="992" y2="287" xlink:href="#c"/><linearGradient id="x" x1="1088.001" y1="243" x2="1152" y2="243" xlink:href="#c"/><linearGradient id="y" x1="1152.001" y1="147" x2="1216" y2="147" xlink:href="#c"/><linearGradient id="z" x1="839.796" y1="103" x2="919.796" y2="103" xlink:href="#c"/><linearGradient id="aa" x1="968" y1="167" x2="1048" y2="167" xlink:href="#c"/></defs><title>card-web_2</title><g class="a"><path class="b" d="M320,123h0a4.012,4.012,0,0,1,4-4h40.184a4.012,4.012,0,0,1,4,4h0a4.012,4.012,0,0,1-4,4H324A4.012,4.012,0,0,1,320,123ZM88,139h28a4.012,4.012,0,0,0,4-4h0a4.012,4.012,0,0,0-4-4H88a4.012,4.012,0,0,0-4,4h0A4.012,4.012,0,0,0,88,139ZM188,255h28.184a4.012,4.012,0,0,0,4-4h0a4.012,4.012,0,0,0-4-4H188a4.012,4.012,0,0,0-4,4h0A4.012,4.012,0,0,0,188,255ZM144,87h12a4.012,4.012,0,0,0,4-4h0a4.012,4.012,0,0,0-4-4H144a4.012,4.012,0,0,0-4,4h0A4.012,4.012,0,0,0,144,87ZM44,279H96a4.012,4.012,0,0,0,4-4h0a4.012,4.012,0,0,0-4-4H44a4.012,4.012,0,0,0-4,4h0A4.012,4.012,0,0,0,44,279Zm115.816-56H188a4.012,4.012,0,0,0,4-4h0a4.012,4.012,0,0,0-4-4H159.816a4.012,4.012,0,0,0-4,4h0A4.012,4.012,0,0,0,159.816,223ZM4,199H32a4.012,4.012,0,0,0,4-4h0a4.012,4.012,0,0,0-4-4H4a4.012,4.012,0,0,0-4,4H0A4.012,4.012,0,0,0,4,199Zm296-72h8a4.012,4.012,0,0,0,4-4h0a4.012,4.012,0,0,0-4-4h-8a4.012,4.012,0,0,0-4,4h0A4.012,4.012,0,0,0,300,127ZM196,187h56a4.012,4.012,0,0,0,4-4h0a4.012,4.012,0,0,0-4-4H196a4.012,4.012,0,0,0-4,4h0A4.012,4.012,0,0,0,196,187Zm80,36h80a4.012,4.012,0,0,0,4-4h0a4.012,4.012,0,0,0-4-4H276a4.012,4.012,0,0,0-4,4h0A4.012,4.012,0,0,0,276,223Z"/><path class="b" d="M1012,235h48a4.012,4.012,0,0,0,4-4h0a4.012,4.012,0,0,0-4-4h-48a4.012,4.012,0,0,0-4,4h0A4.012,4.012,0,0,0,1012,235Zm-48,0h32a4.012,4.012,0,0,0,4-4h0a4.012,4.012,0,0,0-4-4H964a4.012,4.012,0,0,0-4,4h0A4.012,4.012,0,0,0,964,235Zm120-96h32a4.012,4.012,0,0,0,4-4h0a4.012,4.012,0,0,0-4-4h-32a4.012,4.012,0,0,0-4,4h0A4.012,4.012,0,0,0,1084,139Zm-32,0h12a4.012,4.012,0,0,0,4-4h0a4.012,4.012,0,0,0-4-4h-12a4.012,4.012,0,0,0-4,4h0A4.012,4.012,0,0,0,1052,139ZM888,83.251h0a4.012,4.012,0,0,0,4,4h72a4.012,4.012,0,0,0,4-4h0a4.012,4.012,0,0,0-4-4H892A4.012,4.012,0,0,0,888,83.251Z"/><path class="c" d="M160,123h0a4.012,4.012,0,0,1,4-4h32a4.012,4.012,0,0,1,4,4h0a4.012,4.012,0,0,1-4,4H164A4.012,4.012,0,0,1,160,123Zm108.388,64H284a4.012,4.012,0,0,0,4-4h0a4.012,4.012,0,0,0-4-4H268.388a4.012,4.012,0,0,0-4,4h0A4.012,4.012,0,0,0,268.388,187ZM144,147h0a4.012,4.012,0,0,1,4-4h24a4.012,4.012,0,0,1,4,4h0a4.012,4.012,0,0,1-4,4H148A4.012,4.012,0,0,1,144,147ZM24,99h0a4.012,4.012,0,0,1,4-4H51.612a4.012,4.012,0,0,1,4,4h0a4.012,4.012,0,0,1-4,4H28A4.012,4.012,0,0,1,24,99Zm20,96h0a4.012,4.012,0,0,1,4-4H63a4.012,4.012,0,0,1,4,4h0a4.012,4.012,0,0,1-4,4H48A4.012,4.012,0,0,1,44,195ZM264.388,83h0a4.012,4.012,0,0,1,4-4h32a4.012,4.012,0,0,1,4,4h0a4.012,4.012,0,0,1-4,4h-32A4.012,4.012,0,0,1,264.388,83ZM228,59h0a4.012,4.012,0,0,1,4-4h28a4.012,4.012,0,0,1,4,4h0a4.012,4.012,0,0,1-4,4H232A4.012,4.012,0,0,1,228,59Zm44,0h0a4.012,4.012,0,0,1,4-4h8a4.012,4.012,0,0,1,4,4h0a4.012,4.012,0,0,1-4,4h-8A4.012,4.012,0,0,1,272,59ZM111.475,275h0a4.012,4.012,0,0,1,4-4H132a4.012,4.012,0,0,1,4,4h0a4.012,4.012,0,0,1-4,4H115.475A4.012,4.012,0,0,1,111.475,275ZM52,87H67.612a4.012,4.012,0,0,0,4-4h0a4.012,4.012,0,0,0-4-4H52a4.012,4.012,0,0,0-4,4h0A4.012,4.012,0,0,0,52,87Z"/><path class="d" d="M1071.475,231h0a4.012,4.012,0,0,1,4-4H1092a4.012,4.012,0,0,1,4,4h0a4.012,4.012,0,0,1-4,4h-16.525A4.012,4.012,0,0,1,1071.475,231Zm-19.659,20H1092a4.012,4.012,0,0,0,4-4h0a4.012,4.012,0,0,0-4-4h-40.184a4.012,4.012,0,0,0-4,4h0A4.012,4.012,0,0,0,1051.816,251Zm87.659-112H1156a4.012,4.012,0,0,0,4-4h0a4.012,4.012,0,0,0-4-4h-16.525a4.012,4.012,0,0,0-4,4h0A4.012,4.012,0,0,0,1139.475,139ZM1108,155h48a4.012,4.012,0,0,0,4-4h0a4.012,4.012,0,0,0-4-4h-48a4.012,4.012,0,0,0-4,4h0A4.012,4.012,0,0,0,1108,155ZM951.659,179h0a4.012,4.012,0,0,0,4,4h16.525a4.012,4.012,0,0,0,4-4h0a4.012,4.012,0,0,0-4-4H955.659A4.012,4.012,0,0,0,951.659,179ZM904,163h0a4.012,4.012,0,0,0,4,4h20a4.012,4.012,0,0,0,4-4h0a4.012,4.012,0,0,0-4-4H908A4.012,4.012,0,0,0,904,163Zm36,0h0a4.012,4.012,0,0,0,4,4h28.184a4.012,4.012,0,0,0,4-4h0a4.012,4.012,0,0,0-4-4H944A4.012,4.012,0,0,0,940,163Z"/><path class="e" d="M896,183a24,24,0,1,0,24,24A24,24,0,0,0,896,183Z"/><path class="f" d="M328,39a32,32,0,1,0,32,32A32,32,0,0,0,328,39Zm0,47.153A15.154,15.154,0,1,1,343.154,71,15.155,15.155,0,0,1,328,86.154Z"/><path class="g" d="M1116.8,39H995.2a3.209,3.209,0,0,0-3.2,3.2v21.05H964a4,4,0,0,0,0,8h40a4,4,0,0,1,0,8H980a4,4,0,0,0,0,8h12V99.8a3.209,3.209,0,0,0,3.2,3.2h121.6a3.209,3.209,0,0,0,3.2-3.2V42.2A3.209,3.209,0,0,0,1116.8,39Z"/><path class="h" d="M1056,95a24,24,0,1,1,24-24A24,24,0,0,1,1056,95Zm-48-35.75v-2a2,2,0,0,1,2-2h18a4,4,0,0,0,4-4h0a4,4,0,0,0-4-4h-24a4,4,0,0,0-4,4v8a4,4,0,0,0,4,4h0A4,4,0,0,0,1008,59.251Zm-8,32h0a4,4,0,0,0,4,4h24a4,4,0,0,0,4-4h0a4,4,0,0,0-4-4h-24A4,4,0,0,0,1000,91.251Zm84,4h24a4,4,0,0,0,4-4v-40a4,4,0,0,0-4-4h-24a4,4,0,0,0-4,4h0a4,4,0,0,0,4,4h18a2,2,0,0,1,2,2v28a2,2,0,0,1-2,2h-18a4,4,0,0,0-4,4h0A4,4,0,0,0,1084,95.251Z"/><path class="i" d="M1064.817,74.208a.583.583,0,0,1,.183.431,5.326,5.326,0,0,1-1.164,3.3,7.4,7.4,0,0,1-3.127,2.25,12.046,12.046,0,0,1-4.544.806,9.542,9.542,0,0,1-6.479-2.028A7.265,7.265,0,0,1,1047.441,73v-.167h-1.712a.733.733,0,0,1-.518-.194.649.649,0,0,1-.211-.5V69.833a.65.65,0,0,1,.211-.5.733.733,0,0,1,.518-.194h1.712v-.167a7.427,7.427,0,0,1,2.271-5.944A9.434,9.434,0,0,1,1056.165,61a12.046,12.046,0,0,1,4.544.806,7.408,7.408,0,0,1,3.127,2.249A5.332,5.332,0,0,1,1065,67.361a.583.583,0,0,1-.183.431.593.593,0,0,1-.435.181h-4.011a.952.952,0,0,1-.6-.167,1.226,1.226,0,0,1-.352-.583,2.763,2.763,0,0,0-1.178-1.569,3.992,3.992,0,0,0-2.075-.487,3.149,3.149,0,0,0-2.482.931,4.344,4.344,0,0,0-.772,3.042h3.814a.688.688,0,0,1,.506.194.676.676,0,0,1,.2.5v2.306a.689.689,0,0,1-.2.486.665.665,0,0,1-.506.208h-3.814a4.4,4.4,0,0,0,.772,3.056,3.124,3.124,0,0,0,2.482.944,3.992,3.992,0,0,0,2.075-.486,2.763,2.763,0,0,0,1.178-1.569,1.226,1.226,0,0,1,.352-.583.945.945,0,0,1,.6-.167h4.011A.6.6,0,0,1,1064.817,74.208Z"/><path class="j" d="M350.129,0h526a17,17,0,0,1,17,17V333a17,17,0,0,1-17,17h-526a17,17,0,0,1-17-17V17A17,17,0,0,1,350.129,0Z"/><path class="k" d="M893.129,248.014v4A97.987,97.987,0,0,0,796.231,350h-4A102,102,0,0,1,893.129,248.014ZM752.231,350h4a137.984,137.984,0,0,1,136.9-137.986v-4A141.994,141.994,0,0,0,752.231,350Zm20,0h4a117.985,117.985,0,0,1,116.9-117.986v-4A121.994,121.994,0,0,0,772.231,350Zm40,0h4a77.965,77.965,0,0,1,76.9-77.972v-4A81.987,81.987,0,0,0,812.231,350Zm-80,0h4a157.983,157.983,0,0,1,156.9-157.986v-4A161.994,161.994,0,0,0,732.231,350Zm140,0h3.9c.035,0,.068-.005.1-.005a17.958,17.958,0,0,1,16.9-17.939v-4.028A22,22,0,0,0,872.231,350Zm-160,0h4a177.982,177.982,0,0,1,176.9-177.986v-4C793.121,168.61,712.233,249.852,712.231,350Zm-216,0A398.479,398.479,0,0,1,704.588,0h-8.231C574.479,69.052,492.232,199.918,492.231,350Zm358,0h4a37.981,37.981,0,0,1,34.9-37.863v-4.01A41.994,41.994,0,0,0,854.231,350Zm-22,0h4a57.97,57.97,0,0,1,56.9-57.972v-4A61.989,61.989,0,0,0,832.231,350Zm-300,0h4A358.183,358.183,0,0,1,818.639,0H801.478C646.491,40.965,532.232,182.135,532.231,350Zm20,0h4A337.968,337.968,0,0,1,892.385,12.024a16.894,16.894,0,0,0-1.824-3.977C703.372,10.02,552.232,162.345,552.231,350Zm140,0h4a197.981,197.981,0,0,1,196.9-197.986v-4C782.075,148.61,692.233,238.806,692.231,350Zm-180,0h4A378.417,378.417,0,0,1,751.2,0H740.948C606.292,59.057,512.232,193.542,512.231,350Zm80,0h4a297.98,297.98,0,0,1,296.9-297.986v-4C726.846,48.611,592.232,183.578,592.231,350Zm-20,0h4a317.979,317.979,0,0,1,316.9-317.986v-4C715.8,28.611,572.232,172.532,572.231,350Zm80,0h4a237.98,237.98,0,0,1,236.9-237.986v-4C759.983,108.611,652.233,216.715,652.231,350Zm20,0h4a217.981,217.981,0,0,1,216.9-217.986v-4C771.029,128.611,672.233,227.761,672.231,350Zm-40,0h4a257.98,257.98,0,0,1,256.9-257.986v-4C748.938,88.611,632.233,205.669,632.231,350Zm-20,0h4a277.98,277.98,0,0,1,276.9-277.986v-4C737.892,68.611,612.232,194.623,612.231,350Z"/><path class="i" d="M467.578,36.312h5.545V69.159h-5.545ZM508.82,61.688h2.772l-2.257-5.122h-2.772l-8.924-20.253h-5.921l-8.924,20.253h-2.776l-2.257,5.122h2.776l-3.292,7.471h5.921l11.513-26.128,5.968,13.534h-6.381l-2.257,5.122H502.9l3.29,7.471h5.921ZM462.936,36.312,440.85,59.949v9.211H435.3V41.387h-8.534A22.147,22.147,0,0,1,429.755,52.5a22.775,22.775,0,0,1-45.547,0,22.147,22.147,0,0,1,2.984-11.114h-8.556V69.159h-5.545V41.387h-5.2l-4.762-5.075h28.06a22.912,22.912,0,0,1,31.585,0h25.593l-4.73,5.075H440.85v10.95l15.038-16.024ZM424.273,52.5a17.293,17.293,0,1,0-17.292,17.018A17.156,17.156,0,0,0,424.273,52.5Zm24.8,6.8,7.474,9.859h6.578L452.843,55.248Z"/><path class="l" d="M418.728,52.5a11.746,11.746,0,1,1-11.746-11.746A11.746,11.746,0,0,1,418.728,52.5Z"/><circle class="m" cx="406.982" cy="52.5" r="5.563"/><path class="n" d="M384.066,304.2h-6.141a1.921,1.921,0,0,0-1.9,1.9v11.777a1.891,1.891,0,0,0,1.9,1.9h6.117a1.9,1.9,0,0,0,1.9-1.9V306.1a1.835,1.835,0,0,0-.557-1.336A1.793,1.793,0,0,0,384.066,304.2ZM384,317.807h-6V306.193h6ZM399.5,304.2h-7.922a1,1,0,0,0-.984.984V310.3a1,1,0,0,0,.984.984h6.938v6.5a.98.98,0,0,0-.984.984.94.94,0,0,0,.293.7.955.955,0,0,0,.691.287h.984a.98.98,0,0,0,.984-.984V305.186a1,1,0,0,0-.984-.984Zm-.961,5.086h-5.977v-3.094h5.977Zm16.32-4.811a.792.792,0,0,1,.333.662,1.548,1.548,0,0,1-.246.8l-7.994,13.558a.647.647,0,0,1-.6.306,1.138,1.138,0,0,1-.72-.264.823.823,0,0,1-.333-.674,1.569,1.569,0,0,1,.234-.773l8-13.543a.675.675,0,0,1,.618-.32A1.15,1.15,0,0,1,414.859,304.477Zm14.26,8.531a.949.949,0,0,1,.287.7v5.086a.98.98,0,0,1-.984.984h-7.945a.931.931,0,0,1-.7-.3.989.989,0,0,1-.287-.709.917.917,0,0,1,.287-.68.959.959,0,0,1,.7-.281H423.5V306.193h-2.977a.984.984,0,1,1,0-1.969h4.945v13.582h1.969v-4.1a.955.955,0,0,1,.287-.691.94.94,0,0,1,.7-.293A.949.949,0,0,1,429.119,313.008Zm13.869-8.807h-7.922a1,1,0,0,0-.984.984V310.3a1,1,0,0,0,.984.984H442v6.5a.984.984,0,0,0,0,1.969h.984a.98.98,0,0,0,.984-.984V305.186a1,1,0,0,0-.984-.984Zm-.961,5.086h-5.977v-3.094h5.977Zm51.457,9.092,3.964-13.471a.961.961,0,0,1,1-.732.857.857,0,0,1,.924.621l3.926,13.676a1,1,0,0,1,.047.293.959.959,0,0,1-.281.7.878.878,0,0,1-.645.287.927.927,0,0,1-.983-.715l-.778-2.672h-4.508l-.857,2.862a.593.593,0,0,1-.295.355,1.018,1.018,0,0,1-.565.169.953.953,0,0,1-.718-.293.987.987,0,0,1-.283-.715A1.215,1.215,0,0,1,493.484,318.379Zm4.945-9.645-1.688,5.637h3.331Zm19.406-3.551V319.75H515.2l-5.3-12.094v11.109a.984.984,0,1,1-1.969,0v-14.59h2.6l5.32,12.07V305.184a1.021,1.021,0,0,1,1.008-1.008.94.94,0,0,1,.7.293A.983.983,0,0,1,517.836,305.184Zm14.5,0V319.75h-2.641l-5.3-12.094v11.109a.984.984,0,1,1-1.969,0v-14.59h2.6l5.32,12.07V305.184a1.021,1.021,0,0,1,1.008-1.008.94.94,0,0,1,.7.293A.983.983,0,0,1,532.332,305.184Zm4.641,13.2,3.964-13.471a.961.961,0,0,1,1-.732.857.857,0,0,1,.924.621l3.926,13.676a1,1,0,0,1,.047.293.959.959,0,0,1-.281.7.878.878,0,0,1-.645.287.927.927,0,0,1-.983-.715l-.778-2.672h-4.508l-.857,2.862a.593.593,0,0,1-.295.355,1.018,1.018,0,0,1-.565.169.953.953,0,0,1-.718-.293.987.987,0,0,1-.283-.715A1.215,1.215,0,0,1,536.973,318.379Zm4.945-9.645-1.688,5.637h3.331Zm23.988,11.016V305.16a.984.984,0,0,1,1.969,0v12.621h6.961a.989.989,0,0,1,.709.287.963.963,0,0,1,0,1.395.989.989,0,0,1-.709.287Zm14.473-2.953V305.184a.978.978,0,0,1,.293-.709.981.981,0,0,1,1.676.686V316.8a.914.914,0,0,0,.293.674.955.955,0,0,0,.691.287h4.031a.959.959,0,0,0,.7-.281.917.917,0,0,0,.287-.68V305.184a.983.983,0,0,1,.287-.715.976.976,0,0,1,1.395,0,.983.983,0,0,1,.287.715v11.59a2.873,2.873,0,0,1-.873,2.1,2.831,2.831,0,0,1-2.08.879h-4.031a2.961,2.961,0,0,1-2.953-2.953Zm24.434-11.613V319.75h-2.641l-5.3-12.094v11.109a.984.984,0,1,1-1.969,0v-14.59h2.6l5.32,12.07V305.184a1.021,1.021,0,0,1,1.008-1.008.94.94,0,0,1,.7.293A.983.983,0,0,1,604.812,305.184Zm4.535,13.582V305.16a.955.955,0,0,1,.287-.691.987.987,0,0,1,1.682.691v5.8h6v-5.8a.955.955,0,0,1,.287-.691.976.976,0,0,1,1.395,0,.983.983,0,0,1,.287.715v13.582a.937.937,0,0,1-.3.691.973.973,0,0,1-1.67-.691V312.93H611.34v5.836a.937.937,0,0,1-.3.691.978.978,0,0,1-.709.293.955.955,0,0,1-.691-.287A.94.94,0,0,1,609.348,318.766Zm14.52-1.969V305.184a.978.978,0,0,1,.293-.709.981.981,0,0,1,1.676.686V316.8a.914.914,0,0,0,.293.674.955.955,0,0,0,.691.287h4.031a.959.959,0,0,0,.7-.281.917.917,0,0,0,.287-.68V305.184a.983.983,0,0,1,.287-.715.976.976,0,0,1,1.395,0,.983.983,0,0,1,.287.715v11.59a2.873,2.873,0,0,1-.873,2.1,2.831,2.831,0,0,1-2.08.879H626.82a2.961,2.961,0,0,1-2.953-2.953Zm-11-90.494h13.494a1.685,1.685,0,0,0,1.211-.49,1.588,1.588,0,0,0,.51-1.191v-8.687a1.673,1.673,0,0,0-.5-1.211,1.6,1.6,0,0,0-1.182-.512H614.553V203.1a1.682,1.682,0,0,0,0-3.363h-1.682a1.672,1.672,0,0,0-1.221.49,1.6,1.6,0,0,0-.5,1.191v23.2a1.6,1.6,0,0,0,.51,1.182A1.67,1.67,0,0,0,612.872,226.3Zm1.643-8.687h10.17v5.324h-10.17ZM375.441,226.3a1.682,1.682,0,1,1,0-3.363h11.852v-6.566a1.688,1.688,0,0,0-.491-1.211,1.59,1.59,0,0,0-1.19-.51h-6.767a1.639,1.639,0,0,1-1.191-.48,1.687,1.687,0,0,1,1.191-2.883h6.807a1.635,1.635,0,0,0,1.181-.49,1.608,1.608,0,0,0,.5-1.191V203.1H375.321a1.682,1.682,0,1,1,0-3.363h12.012A3.366,3.366,0,0,1,390.7,203.1v6.3a4.823,4.823,0,0,1-1.361,3.564,5,5,0,0,1,1.4,3.4v6.566a3.221,3.221,0,0,1-1,2.373,3.3,3.3,0,0,1-2.4.99Zm49.08,0h10.21a3.4,3.4,0,0,0,3.363-3.363v-8.248a3.206,3.206,0,0,0-1-2.393,3.285,3.285,0,0,0-2.362-.971V201.42a1.675,1.675,0,0,0-1.682-1.682H426.2a1.608,1.608,0,0,0-1.2.49,1.636,1.636,0,0,0-.48,1.191v9.908a3.287,3.287,0,0,0-2.4.992,3.216,3.216,0,0,0-1,2.371V222.9a3.334,3.334,0,0,0,.99,2.361A3.2,3.2,0,0,0,424.521,226.3Zm3.363-23.2h3.483v8.227h-3.483Zm-3.363,11.59h10.21v8.248h-10.21Zm392.838-2.361a3.23,3.23,0,0,1,1,2.361v8.248A3.383,3.383,0,0,1,815,226.3h-7.788a5.7,5.7,0,0,1-2.222-.5l-2.543-1.061a1.58,1.58,0,0,1-1.021-1.6,1.674,1.674,0,0,1,.461-1.191,1.482,1.482,0,0,1,1.121-.49,2.863,2.863,0,0,1,1.161.3l2.222.939a1.58,1.58,0,0,0,.821.24H815v-8.248h-10.17V199.738h11.852a1.682,1.682,0,1,1,0,3.363H808.23v8.227H815A3.227,3.227,0,0,1,817.359,212.33ZM790.977,199.7h-10.49a3.282,3.282,0,0,0-3.242,3.244v20.119a3.229,3.229,0,0,0,3.242,3.242h10.451a3.246,3.246,0,0,0,3.242-3.242V202.942a3.136,3.136,0,0,0-.95-2.283A3.064,3.064,0,0,0,790.977,199.7Zm-.119,23.242h-10.25V203.1h10.25ZM405.867,226.3a1.671,1.671,0,0,1-1.212-.5,1.6,1.6,0,0,1-.51-1.182v-8.49a1.859,1.859,0,0,1,.6-1.482l6.209-5.252v-6.256h-10.17a1.7,1.7,0,0,1-2.873.951,1.621,1.621,0,0,1-.49-1.191v-1.441a1.674,1.674,0,0,1,1.682-1.682h15.255v10.33a1.727,1.727,0,0,1-.621,1.361l-6.186,5.285v7.828a1.688,1.688,0,0,1-.491,1.211A1.59,1.59,0,0,1,405.867,226.3Zm126.263-25.574a3.22,3.22,0,0,1,1,2.373v8.188a3.4,3.4,0,0,1-3.4,3.4H519.516v8.248h11.932a1.636,1.636,0,0,1,1.182.49,1.669,1.669,0,0,1,0,2.383,1.628,1.628,0,0,1-1.182.49H516.153V214.692a3.3,3.3,0,0,1,.991-2.4,3.226,3.226,0,0,1,2.372-1h10.211V203.1H517.715a1.61,1.61,0,0,1-1.2-.492,1.715,1.715,0,0,1,0-2.381,1.608,1.608,0,0,1,1.2-.49h12.012A3.3,3.3,0,0,1,532.129,200.729ZM767.238,199.7h-10.49a3.282,3.282,0,0,0-3.242,3.244v20.119a3.229,3.229,0,0,0,3.242,3.242H767.2a3.246,3.246,0,0,0,3.242-3.242V202.942a3.136,3.136,0,0,0-.95-2.283A3.064,3.064,0,0,0,767.238,199.7Zm-.119,23.242h-10.25V203.1h10.25Zm-211.25-22.211a3.22,3.22,0,0,1,1,2.373v8.188a3.4,3.4,0,0,1-3.4,3.4H543.255v8.248h11.932a1.636,1.636,0,0,1,1.182.49,1.669,1.669,0,0,1,0,2.383,1.628,1.628,0,0,1-1.182.49H539.892V214.692a3.3,3.3,0,0,1,.991-2.4,3.226,3.226,0,0,1,2.372-1h10.211V203.1H541.455a1.61,1.61,0,0,1-1.2-.492,1.715,1.715,0,0,1,0-2.381,1.608,1.608,0,0,1,1.2-.49h12.012A3.3,3.3,0,0,1,555.869,200.729ZM579.217,214.7a1.682,1.682,0,0,1-1.191,2.873v7.047a1.6,1.6,0,0,1-.5,1.191,1.677,1.677,0,0,1-2.863-1.191v-7.006h-10.13v-16.2a1.743,1.743,0,0,1,1.722-1.723,1.6,1.6,0,0,1,1.182.51,1.677,1.677,0,0,1,.5,1.213v12.791h6.727v-9.85a1.687,1.687,0,0,1,.49-1.211,1.647,1.647,0,0,1,2.383,0,1.691,1.691,0,0,1,.49,1.211v9.85A1.626,1.626,0,0,1,579.217,214.7Zm95.737.041a1.622,1.622,0,0,1,.491,1.191v8.688a1.675,1.675,0,0,1-1.682,1.682H660.19a1.589,1.589,0,0,1-1.19-.51,1.688,1.688,0,0,1-.491-1.211A1.569,1.569,0,0,1,659,223.42a1.637,1.637,0,0,1,1.19-.48h5.166V203.1H660.27a1.682,1.682,0,1,1,0-3.363h8.449v23.2h3.363v-7.006a1.633,1.633,0,0,1,.49-1.182,1.6,1.6,0,0,1,1.191-.5A1.624,1.624,0,0,1,674.955,214.742Zm-24.49-1.771a5,5,0,0,1,1.4,3.4v6.566a3.218,3.218,0,0,1-1,2.373,3.293,3.293,0,0,1-2.4.99H636.572a1.682,1.682,0,1,1,0-3.363h11.852v-6.566a1.688,1.688,0,0,0-.491-1.211,1.59,1.59,0,0,0-1.19-.51h-6.768a1.637,1.637,0,0,1-1.19-.48,1.687,1.687,0,0,1,1.19-2.883h6.807a1.636,1.636,0,0,0,1.182-.49,1.61,1.61,0,0,0,.5-1.191V203.1H636.451a1.682,1.682,0,1,1,0-3.363h12.012a3.364,3.364,0,0,1,3.363,3.363v6.3A4.819,4.819,0,0,1,650.464,212.971ZM509.31,222.94v-8.248a3.2,3.2,0,0,0-1-2.393,3.286,3.286,0,0,0-2.363-.971V201.42a1.674,1.674,0,0,0-1.682-1.682h-6.846a1.608,1.608,0,0,0-1.2.49,1.636,1.636,0,0,0-.48,1.191v9.908a3.287,3.287,0,0,0-2.4.992,3.217,3.217,0,0,0-1,2.371V222.9a3.335,3.335,0,0,0,.991,2.361,3.2,3.2,0,0,0,2.413,1.041h10.209a3.4,3.4,0,0,0,3.363-3.363ZM499.1,203.1h3.482v8.227H499.1Zm6.846,19.838H495.738v-8.248h10.209Zm237.393-11.611V201.42a1.674,1.674,0,0,0-1.682-1.682h-6.846a1.608,1.608,0,0,0-1.2.49,1.636,1.636,0,0,0-.48,1.191v9.908a3.287,3.287,0,0,0-2.4.992,3.217,3.217,0,0,0-1,2.371V222.9a3.335,3.335,0,0,0,.991,2.361,3.2,3.2,0,0,0,2.413,1.041h10.209a3.4,3.4,0,0,0,3.363-3.363v-8.248a3.2,3.2,0,0,0-1-2.393A3.286,3.286,0,0,0,743.339,211.328Zm-6.846-8.227h3.482v8.227h-3.482Zm6.846,19.838H733.13v-8.248h10.209ZM460.912,200.729a3.221,3.221,0,0,1,1,2.373v8.188a3.4,3.4,0,0,1-3.4,3.4H448.3v8.248h11.932a1.636,1.636,0,0,1,1.182.49,1.669,1.669,0,0,1,0,2.383,1.628,1.628,0,0,1-1.182.49H444.936V214.692a3.3,3.3,0,0,1,.991-2.4,3.225,3.225,0,0,1,2.372-1h10.21V203.1H446.5a1.61,1.61,0,0,1-1.2-.492,1.715,1.715,0,0,1,0-2.381,1.608,1.608,0,0,1,1.2-.49h12.012A3.293,3.293,0,0,1,460.912,200.729ZM696.021,199.7h-10.49a3.282,3.282,0,0,0-3.242,3.244v20.119a3.229,3.229,0,0,0,3.242,3.242h10.451a3.246,3.246,0,0,0,3.242-3.242V202.942a3.136,3.136,0,0,0-.95-2.283A3.064,3.064,0,0,0,696.021,199.7ZM695.9,222.94h-10.25V203.1H695.9ZM378.741,294.1l.384,1.7h.016l.416-1.729,2.7-7.664h1.328l-4.24,11.375h-.592l-4.32-11.375h1.456Zm10.774.4h-4.107l-1.114,3.1h-1.328l4.24-11.375h.608l4.256,11.375h-1.408Zm-3.677-1.152h3.279l-1.242-3.408-.4-1.7h-.016l-.4,1.729ZM400.18,297.6h-6.624V286.4h1.328v10.016h5.3Zm1.953-11.2h1.328v11.2h-1.328Zm4.351,0c.2-.033.429-.057.68-.072s.512-.027.784-.031l.8-.018c.261,0,.5-.008.728-.008a5.954,5.954,0,0,1,2.328.416,4.324,4.324,0,0,1,1.624,1.16,4.83,4.83,0,0,1,.952,1.785,8.372,8.372,0,0,1,.016,4.471,5.257,5.257,0,0,1-.936,1.857,4.616,4.616,0,0,1-1.664,1.295,5.716,5.716,0,0,1-2.48.488c-.17,0-.392,0-.664-.008s-.552-.016-.84-.033-.555-.029-.8-.039a3.694,3.694,0,0,1-.528-.049Zm3.024,1.057h-.456c-.166,0-.328,0-.488.016s-.307.021-.44.031-.237.021-.312.031V296.5a1.929,1.929,0,0,0,.3.023c.149.006.3.012.464.016l.464.018c.149,0,.25.008.3.008a4.144,4.144,0,0,0,1.88-.385,3.244,3.244,0,0,0,1.216-1.031,4.16,4.16,0,0,0,.648-1.488,7.747,7.747,0,0,0,.192-1.736,7.275,7.275,0,0,0-.176-1.576,4.13,4.13,0,0,0-.608-1.432,3.368,3.368,0,0,0-1.16-1.049A3.715,3.715,0,0,0,409.508,287.457Zm18.448.127h-3.488V297.6H423.14V287.584h-3.488V286.4h8.3Zm8.353,4.881h-5.376V297.6H429.6V286.4h1.328v4.879h5.376V286.4h1.327v11.2h-1.327Zm4.048-5.953q.608-.111,1.4-.176t1.448-.064a6.033,6.033,0,0,1,1.4.16,3.25,3.25,0,0,1,1.168.529,2.677,2.677,0,0,1,.808.959,3.529,3.529,0,0,1-.416,3.568,3.485,3.485,0,0,1-1.824,1.088l.769.592,2.784,4.432H446.34l-3.088-4.832-1.567-.24V297.6h-1.328Zm2.88.912H442.8c-.149,0-.293.006-.432.016s-.27.021-.392.033a1.54,1.54,0,0,0-.3.047v4.129h1.247a2.936,2.936,0,0,0,1.824-.545,1.985,1.985,0,0,0,.721-1.7,1.875,1.875,0,0,0-.593-1.424A2.3,2.3,0,0,0,443.236,287.424Zm13.071-1.023h1.28v7.473a5.14,5.14,0,0,1-.265,1.742,3.1,3.1,0,0,1-.752,1.209,2.986,2.986,0,0,1-1.176.7,4.861,4.861,0,0,1-1.52.225,4.378,4.378,0,0,1-2.992-.9,3.453,3.453,0,0,1-1.008-2.719V286.4H451.2v7.1a5.224,5.224,0,0,0,.168,1.432,2.266,2.266,0,0,0,.5.945,1.939,1.939,0,0,0,.84.52,3.869,3.869,0,0,0,1.176.16,2.224,2.224,0,0,0,1.856-.713,3.834,3.834,0,0,0,.56-2.344Z"/><rect class="o" x="369" y="105" width="86" height="78" rx="12.301" ry="12.301"/><rect class="p" x="371" y="107" width="82" height="74" rx="11" ry="11"/><path class="q" d="M399.054,124a12.969,12.969,0,0,0,1.856,16.285l.73.715-.73.715a13,13,0,1,0,18.179,0l-.73-.715.73-.715a13.079,13.079,0,0,0,2.657-3.716l.271-.57H453v2H423.248a15.055,15.055,0,0,1-2.094,3,14.916,14.916,0,0,1,3.794,9H453v2H424.949a14.978,14.978,0,0,1-7.488,12H453v2H411v15h-2V166H371v-2h31.538a14.978,14.978,0,0,1-7.488-12H371v-2h24.051a14.916,14.916,0,0,1,3.8-9,15.022,15.022,0,0,1-2.1-3H371v-2h24.874a14.86,14.86,0,0,1,.867-12H371v-2h38V107h2v15h42v2Z"/><path class="r" d="M232,87a40,40,0,1,0,40,40A40,40,0,0,0,232,87Z"/><g class="s"><path d="M229.481,155.5l-15.807-22.36,15.807,9.255Zm0-16.382L213.566,129.8l15.914-6.972Zm0-17.413-15.4,6.746,15.4-25.876Zm1.026-19.138,15.618,25.981L230.507,121.7Zm0,52.934V142.4l15.807-9.255Zm0-16.381V122.826l15.926,6.976Z"/></g><path class="i" d="M231.481,153.5l-15.807-22.36,15.807,9.255Zm0-16.382L215.566,127.8l15.914-6.972Zm0-17.413-15.4,6.746,15.4-25.876Zm1.026-19.138,15.618,25.981L232.507,119.7Zm0,52.934V140.4l15.807-9.255Zm0-16.381V120.826l15.926,6.976Z"/><path class="t" d="M40,151a8,8,0,1,0,8,8A8,8,0,0,0,40,151Zm0,11.788A3.789,3.789,0,1,1,43.789,159,3.789,3.789,0,0,1,40,162.788Z"/><path class="u" d="M183.577,87a7.577,7.577,0,1,1,7.577-7.577A7.577,7.577,0,0,1,183.577,87Z"/><path class="v" d="M132.423,110.154A3.577,3.577,0,1,1,136,106.577,3.577,3.577,0,0,1,132.423,110.154Z"/><path class="w" d="M936,31.423a16,16,0,1,0,16,16A16,16,0,0,0,936,31.423ZM936,55a7.577,7.577,0,1,1,7.577-7.577A7.577,7.577,0,0,1,936,55Z"/><path class="x" d="M971.577,127a3.577,3.577,0,1,1,3.577-3.577A3.577,3.577,0,0,1,971.577,127Z"/><path class="y" d="M66.756,255a3.577,3.577,0,1,1,3.577-3.577A3.577,3.577,0,0,1,66.756,255Z"/><path class="z" d="M184.423,287A7.577,7.577,0,1,1,192,279.423,7.577,7.577,0,0,1,184.423,287Z"/><path class="aa" d="M1087.577,190.154a7.577,7.577,0,1,1,7.577-7.577A7.577,7.577,0,0,1,1087.577,190.154Z"/><path class="ab" d="M88,63a24,24,0,1,0,24,24A24,24,0,0,0,88,63Z"/><g class="s"><path d="M96.045,99.694a5.838,5.838,0,0,1-7.825,2.112,5.489,5.489,0,0,1-2.175-7.6,2.287,2.287,0,0,0-.907-3.165,2.433,2.433,0,0,0-3.233.835h0v0c-.009.017-.018.033-.027.049a5.835,5.835,0,0,1-7.825,2.112,5.489,5.489,0,0,1-2.176-7.6A5.836,5.836,0,0,1,79.7,84.327a5.64,5.64,0,0,1,2.141,2.055v0h0a2.434,2.434,0,0,0,3.25.763,2.284,2.284,0,0,0,.834-3.183,5.485,5.485,0,0,1,2-7.641A5.841,5.841,0,0,1,95.8,78.26a5.484,5.484,0,0,1-2,7.641,5.848,5.848,0,0,1-2.9.783h0a2.345,2.345,0,1,0,.111,4.687l-.008,0a5.855,5.855,0,0,1,2.867.721A5.49,5.49,0,0,1,96.045,99.694Z"/></g><path class="i" d="M98.045,97.694a5.838,5.838,0,0,1-7.825,2.112,5.489,5.489,0,0,1-2.175-7.6,2.287,2.287,0,0,0-.907-3.165,2.433,2.433,0,0,0-3.233.835h0v0c-.009.017-.018.033-.027.049a5.835,5.835,0,0,1-7.825,2.112,5.489,5.489,0,0,1-2.176-7.6A5.836,5.836,0,0,1,81.7,82.327a5.64,5.64,0,0,1,2.141,2.055v0h0a2.434,2.434,0,0,0,3.25.763,2.284,2.284,0,0,0,.834-3.183,5.485,5.485,0,0,1,2-7.641A5.841,5.841,0,0,1,97.8,76.26a5.484,5.484,0,0,1-2,7.641,5.848,5.848,0,0,1-2.9.783h0a2.345,2.345,0,1,0,.111,4.687l-.008,0a5.855,5.855,0,0,1,2.867.721A5.49,5.49,0,0,1,98.045,97.694Z"/><path class="ac" d="M304,239a40,40,0,0,0-40,40h6a4,4,0,0,1,0,8h-5.2A40,40,0,1,0,304,239Z"/><g class="s"><path d="M317.526,300.506H286.273l2.627-12.54-5.108,3.5,1.241-6.863,5.343-3.678,5.24-25.013h9.757l-3.608,17.175,12.7-8.742-1.488,7.111-12.7,8.707-2.513,11.965h21.5Z"/></g><path class="i" d="M319.526,298.506H288.273l2.627-12.54-5.108,3.5,1.241-6.863,5.343-3.678,5.24-25.013h9.757l-3.608,17.175,12.7-8.742-1.488,7.111-12.7,8.707-2.513,11.965h21.5Z"/><path class="ad" d="M232,203a16,16,0,1,0,16,16A16,16,0,0,0,232,203Zm0,23.577A7.577,7.577,0,1,1,239.577,219,7.577,7.577,0,0,1,232,226.577Z"/><path class="ae" d="M1040,271a16,16,0,1,0,16,16A16,16,0,0,0,1040,271Zm0,23.577a7.577,7.577,0,1,1,7.577-7.577A7.577,7.577,0,0,1,1040,294.577Z"/><path class="af" d="M392,171a40,40,0,0,1-76.665,16H300.388a4,4,0,0,1,0-8h15.225a4,4,0,0,0,0-8H284a4,4,0,0,1,0-8h28.8a40,40,0,0,1,79.2,8Z"/><g class="s"><path d="M367.139,172.907a11.971,11.971,0,0,0-4.084-1.776,11.1,11.1,0,0,0,2.86-2.354,8.91,8.91,0,0,0,1.315-3.942c.069-.947.231-4.915-2.86-7.2-2.391-1.766-5.131-2.468-8.811-2.7v-8.007h-4.937v7.91h-3.759v-7.91h-4.936v7.91h-9.712v5.126h2.854c.779,0,2.163.087,2.751.745s.692,1,.692,2.284v20.426A2,2,0,0,1,338,184.9c-.415.392-.83.485-1.822.485H333.23l-1.015,5.929h9.711v7.89h4.937v-7.89h3.76v7.89h4.937v-8.02c1.275-.075,2.465-.171,3.159-.262a16.417,16.417,0,0,0,7.567-2.629c2.975-2.076,3.644-5.33,3.712-8.605S368.822,174.177,367.139,172.907Zm-20.277-2.952v-9.526s1.569-.139,3.114-.116a15.706,15.706,0,0,1,4.937.692,4.268,4.268,0,0,1,3.275,3.946,3.866,3.866,0,0,1-2.123,3.759,12.046,12.046,0,0,1-5.1,1.246C349.17,170.025,346.863,169.955,346.863,169.955Zm11.05,14.071a15.667,15.667,0,0,1-5.582,1.339c-2.192.161-5.468.091-5.468.091V174.869s3.137-.162,5.582,0a15.805,15.805,0,0,1,5.42,1.246,4.368,4.368,0,0,1,.047,7.911Z"/></g><path class="i" d="M369.139,170.907a11.971,11.971,0,0,0-4.084-1.776,11.1,11.1,0,0,0,2.86-2.354,8.91,8.91,0,0,0,1.315-3.942c.069-.947.231-4.915-2.86-7.2-2.391-1.766-5.131-2.468-8.811-2.7v-8.007h-4.937v7.91h-3.759v-7.91h-4.936v7.91h-9.712v5.126h2.854c.779,0,2.163.087,2.751.745s.692,1,.692,2.284v20.426A2,2,0,0,1,340,182.9c-.415.392-.83.485-1.822.485H335.23l-1.015,5.929h9.711v7.89h4.937v-7.89h3.76v7.89h4.937v-8.02c1.275-.075,2.465-.171,3.159-.262a16.417,16.417,0,0,0,7.567-2.629c2.975-2.076,3.644-5.33,3.712-8.605S370.822,172.177,369.139,170.907Zm-20.277-2.952v-9.526s1.569-.139,3.114-.116a15.706,15.706,0,0,1,4.937.692,4.268,4.268,0,0,1,3.275,3.946,3.866,3.866,0,0,1-2.123,3.759,12.046,12.046,0,0,1-5.1,1.246C351.17,168.025,348.863,167.955,348.863,167.955Zm11.05,14.071a15.667,15.667,0,0,1-5.582,1.339c-2.192.161-5.468.091-5.468.091V172.869s3.137-.162,5.582,0a15.805,15.805,0,0,1,5.42,1.246,4.368,4.368,0,0,1,.047,7.911Z"/><path class="c" d="M247.862,275h0a4.012,4.012,0,0,1,4-4h16.525a4.012,4.012,0,0,1,4,4h0a4.012,4.012,0,0,1-4,4H251.862A4.012,4.012,0,0,1,247.862,275ZM228.2,295h40.184a4.012,4.012,0,0,0,4-4h0a4.012,4.012,0,0,0-4-4H228.2a4.012,4.012,0,0,0-4,4h0A4.012,4.012,0,0,0,228.2,295Z"/><path class="ag" d="M136,167a40,40,0,0,0-36.665,24H84.388a4,4,0,0,0,0,8H99.612a4,4,0,1,1,0,8H68a4,4,0,0,0,0,8H96.8A40,40,0,1,0,136,167Z"/><g class="s"><path d="M113.953,205.971h15.969l-1.848,6.006H112.106Zm41.368-2.832c-.635,2.294-2.7,9.18-3.548,11.622a10.461,10.461,0,0,1-4.412,5.663c-2,1.172-2.751,1.663-5.549,1.663H113.156l2.018-6.54h26.95l4.026-13.092H119.415l2.019-6.541h29.836a4.542,4.542,0,0,1,4.052,2.342C156.2,199.965,155.956,200.844,155.322,203.139Z"/></g><path class="i" d="M115.953,203.971h15.969l-1.848,6.006H114.106Zm41.368-2.832c-.635,2.294-2.7,9.18-3.548,11.622a10.461,10.461,0,0,1-4.412,5.663c-2,1.172-2.751,1.663-5.549,1.663H115.156l2.018-6.54h26.95l4.026-13.092H121.415l2.019-6.541h29.836a4.542,4.542,0,0,1,4.052,2.342C158.2,197.965,157.956,198.844,157.322,201.139Z"/><path class="ah" d="M988.8,255H867.2a3.209,3.209,0,0,0-3.2,3.2v12.55H836a4,4,0,0,0,0,8h40a4,4,0,0,1,0,8H848a4,4,0,0,0,0,8h16V315.8a3.209,3.209,0,0,0,3.2,3.2H988.8a3.209,3.209,0,0,0,3.2-3.2V258.2A3.209,3.209,0,0,0,988.8,255Z"/><path class="h" d="M928,311a24,24,0,1,1,24-24A24,24,0,0,1,928,311Zm-52-16.25h0a4,4,0,0,0-4,4v8a4,4,0,0,0,4,4h24a4,4,0,0,0,4-4h0a4,4,0,0,0-4-4H882a2,2,0,0,1-2-2v-2A4,4,0,0,0,876,294.75Zm0-24h24a4,4,0,0,0,4-4h0a4,4,0,0,0-4-4H876a4,4,0,0,0-4,4h0A4,4,0,0,0,876,270.75Zm76-4h0a4,4,0,0,0,4,4h18a2,2,0,0,1,2,2v28a2,2,0,0,1-2,2H956a4,4,0,0,0-4,4h0a4,4,0,0,0,4,4h24a4,4,0,0,0,4-4v-40a4,4,0,0,0-4-4H956A4,4,0,0,0,952,266.75Z"/><path class="i" d="M926.436,298.814a.654.654,0,0,1-.188-.482v-1.866a8.461,8.461,0,0,1-3.192-1,5.322,5.322,0,0,1-1.978-1.879,4.972,4.972,0,0,1-.713-2.374.552.552,0,0,1,.551-.56h3.329a.966.966,0,0,1,.5.108,1.769,1.769,0,0,1,.4.373A2.936,2.936,0,0,0,928,292.6a4.12,4.12,0,0,0,2.091-.438,1.355,1.355,0,0,0,.739-1.213,1.2,1.2,0,0,0-.388-.92,3.408,3.408,0,0,0-1.2-.64,23.451,23.451,0,0,0-2.391-.627,10.046,10.046,0,0,1-4.532-1.946,4.68,4.68,0,0,1-1.5-3.732,5.085,5.085,0,0,1,1.453-3.667,6.693,6.693,0,0,1,3.98-1.879v-1.866a.654.654,0,0,1,.188-.482.6.6,0,0,1,.438-.187h2.178a.593.593,0,0,1,.45.187.679.679,0,0,1,.175.482v1.918a7.644,7.644,0,0,1,2.855,1.135,6.09,6.09,0,0,1,1.84,1.866,4.372,4.372,0,0,1,.689,2.04.611.611,0,0,1-.15.412.474.474,0,0,1-.376.174h-3.506a.915.915,0,0,1-.851-.48,1.614,1.614,0,0,0-.789-.946,2.917,2.917,0,0,0-1.54-.388,2.823,2.823,0,0,0-1.627.4,1.337,1.337,0,0,0-.577,1.172,1.354,1.354,0,0,0,.752,1.215,10.829,10.829,0,0,0,2.779.892,15.708,15.708,0,0,1,3.755,1.133,4.712,4.712,0,0,1,2.053,1.76,5.226,5.226,0,0,1,.651,2.734,5.078,5.078,0,0,1-1.615,3.867,7.655,7.655,0,0,1-4.344,1.892v1.866a.679.679,0,0,1-.175.482.593.593,0,0,1-.45.187h-2.178A.6.6,0,0,1,926.436,298.814Z"/><path class="ai" d="M1120,211a32.013,32.013,0,0,0-30.991,24h2.6a4,4,0,0,1,0,8H1088a32,32,0,1,0,32-32Z"/><g class="s"><path d="M1130.675,230.438h-10.147a1.888,1.888,0,0,0-1.335.553l-15.2,15.2a1.888,1.888,0,0,0,0,2.67l10.147,10.147a1.888,1.888,0,0,0,2.67,0l15.2-15.2a1.888,1.888,0,0,0,.553-1.335V232.326A1.888,1.888,0,0,0,1130.675,230.438Zm-2.918,8.011a2.266,2.266,0,1,1,0-3.2A2.266,2.266,0,0,1,1127.756,238.448Z"/></g><path class="i" d="M1132.675,228.438h-10.147a1.888,1.888,0,0,0-1.335.553l-15.2,15.2a1.888,1.888,0,0,0,0,2.67l10.147,10.147a1.888,1.888,0,0,0,2.67,0l15.2-15.2a1.888,1.888,0,0,0,.553-1.335V230.326A1.888,1.888,0,0,0,1132.675,228.438Zm-2.918,8.011a2.266,2.266,0,1,1,0-3.2A2.266,2.266,0,0,1,1129.756,236.448Z"/><path class="aj" d="M1184,115a32.013,32.013,0,0,0-30.991,24h2.6a4,4,0,0,1,0,8H1152a32,32,0,1,0,32-32Z"/><g class="s"><path d="M1201.723,146.365a1.5,1.5,0,0,0-.872-.261h-10.173a1.582,1.582,0,0,1-1.343-.745l-8.7-13.953a1.582,1.582,0,0,0-1.343-.745h-.823a1.582,1.582,0,0,0-1.511,2.053l3.534,11.338a1.582,1.582,0,0,1-1.511,2.053h-7.648a1.582,1.582,0,0,1-1.267-.634l-1.939-2.592a1.582,1.582,0,0,0-1.267-.634h0a1.582,1.582,0,0,0-1.522,2.016l1.228,4.307a1.582,1.582,0,0,1,0,.867l-1.228,4.307a1.582,1.582,0,0,0,1.522,2.016h0a1.582,1.582,0,0,0,1.267-.634l1.939-2.592a1.582,1.582,0,0,1,1.267-.634h7.648a1.582,1.582,0,0,1,1.511,2.053l-3.534,11.338a1.582,1.582,0,0,0,1.511,2.053h.823a1.582,1.582,0,0,0,1.343-.745l8.7-13.953a1.582,1.582,0,0,1,1.343-.745h9.713C1202.818,151.9,1204.766,148.544,1201.723,146.365Z"/></g><path class="i" d="M1203.723,144.365a1.5,1.5,0,0,0-.872-.261h-10.173a1.582,1.582,0,0,1-1.343-.745l-8.7-13.953a1.582,1.582,0,0,0-1.343-.745h-.823a1.582,1.582,0,0,0-1.511,2.053l3.534,11.338a1.582,1.582,0,0,1-1.511,2.053h-7.648a1.582,1.582,0,0,1-1.267-.634l-1.939-2.592a1.582,1.582,0,0,0-1.267-.634h0a1.582,1.582,0,0,0-1.522,2.016l1.228,4.307a1.582,1.582,0,0,1,0,.867l-1.228,4.307a1.582,1.582,0,0,0,1.522,2.016h0a1.582,1.582,0,0,0,1.267-.634l1.939-2.592a1.582,1.582,0,0,1,1.267-.634h7.648a1.582,1.582,0,0,1,1.511,2.053l-3.534,11.338a1.582,1.582,0,0,0,1.511,2.053h.823a1.582,1.582,0,0,0,1.343-.745l8.7-13.953a1.582,1.582,0,0,1,1.343-.745h9.713C1204.818,149.9,1206.766,146.544,1203.723,144.365Z"/><path class="ak" d="M879.8,63a40,40,0,0,0-40,40h12a4,4,0,0,1,0,8H840.6a40,40,0,1,0,39.2-48Z"/><g class="s"><path d="M872,114.686a3.751,3.751,0,1,0,3.751,3.751A3.751,3.751,0,0,0,872,114.686Zm18,0a3.751,3.751,0,1,0,3.751,3.751A3.751,3.751,0,0,0,890,114.686Zm9.921-17.842-3.037,9.11a1.518,1.518,0,0,1-1.44,1.038H869.249a.759.759,0,0,0-.72,1l.506,1.518a.759.759,0,0,0,.72.519h23.664a1.518,1.518,0,0,1,1.44,2h0a1.518,1.518,0,0,1-1.44,1.038H868.278a1.518,1.518,0,0,1-1.44-1.038l-5.554-16.663a.759.759,0,0,0-.72-.519h-7.045a1.519,1.519,0,0,1-1.511-1.668,1.562,1.562,0,0,1,1.576-1.369h9.625a1.518,1.518,0,0,1,1.358.839l1.1,2.2h32.815A1.518,1.518,0,0,1,899.921,96.844Z"/></g><path class="i" d="M874,112.686a3.751,3.751,0,1,0,3.751,3.751A3.751,3.751,0,0,0,874,112.686Zm18,0a3.751,3.751,0,1,0,3.751,3.751A3.751,3.751,0,0,0,892,112.686Zm9.921-17.842-3.037,9.11a1.518,1.518,0,0,1-1.44,1.038H871.249a.759.759,0,0,0-.72,1l.506,1.518a.759.759,0,0,0,.72.519h23.664a1.518,1.518,0,0,1,1.44,2h0a1.518,1.518,0,0,1-1.44,1.038H870.278a1.518,1.518,0,0,1-1.44-1.038l-5.554-16.663a.759.759,0,0,0-.72-.519h-7.045a1.519,1.519,0,0,1-1.511-1.668,1.562,1.562,0,0,1,1.576-1.369h9.625a1.518,1.518,0,0,1,1.358.839l1.1,2.2h32.815A1.518,1.518,0,0,1,901.921,94.844Z"/><path class="d" d="M823.659,99h0a4.012,4.012,0,0,1,4-4h16.525a4.012,4.012,0,0,1,4,4h0a4.012,4.012,0,0,1-4,4H827.659A4.012,4.012,0,0,1,823.659,99ZM772,119h16.525a4.012,4.012,0,0,0,4-4h0a4.012,4.012,0,0,0-4-4H772a4.012,4.012,0,0,0-4,4h0A4.012,4.012,0,0,0,772,119Zm32,0h40.184a4.012,4.012,0,0,0,4-4h0a4.012,4.012,0,0,0-4-4H804a4.012,4.012,0,0,0-4,4h0A4.012,4.012,0,0,0,804,119Z"/><path class="al" d="M1008,127a40,40,0,0,0-40,40h4a4,4,0,0,1,0,8h-3.2a40,40,0,1,0,39.2-48Z"/><g class="s"><path d="M1025.767,163.4a.81.81,0,0,0-.6-.234h-11.458a5.833,5.833,0,1,0,0-11.667,5.275,5.275,0,0,0-4.375,2.005L1006,157.8l-3.333-4.3a5.275,5.275,0,0,0-4.375-2.005,5.833,5.833,0,1,0,0,11.667H986.833A.8.8,0,0,0,986,164v8.334a.8.8,0,0,0,.833.833h2.5V184a2.49,2.49,0,0,0,2.5,2.5h28.334a2.49,2.49,0,0,0,2.5-2.5V173.167h2.5a.8.8,0,0,0,.833-.833V164A.81.81,0,0,0,1025.767,163.4Zm-13.854-7.761a2.228,2.228,0,0,1,1.8-.807,2.5,2.5,0,1,1,0,5h-5.052Zm-13.621,4.193a2.5,2.5,0,1,1,0-5,2.227,2.227,0,0,1,1.8.807l3.281,4.193h-5.078Zm11.876,8.334v13.646a1.18,1.18,0,0,1-.469,1,1.944,1.944,0,0,1-1.2.352h-5a1.943,1.943,0,0,1-1.2-.352,1.179,1.179,0,0,1-.469-1V163.167h8.334Z"/></g><path class="i" d="M1027.767,161.4a.81.81,0,0,0-.6-.234h-11.458a5.833,5.833,0,1,0,0-11.667,5.275,5.275,0,0,0-4.375,2.005L1008,155.8l-3.333-4.3a5.275,5.275,0,0,0-4.375-2.005,5.833,5.833,0,1,0,0,11.667H988.833A.8.8,0,0,0,988,162v8.334a.8.8,0,0,0,.833.833h2.5V182a2.49,2.49,0,0,0,2.5,2.5h28.334a2.49,2.49,0,0,0,2.5-2.5V171.167h2.5a.8.8,0,0,0,.833-.833V162A.81.81,0,0,0,1027.767,161.4Zm-13.854-7.761a2.228,2.228,0,0,1,1.8-.807,2.5,2.5,0,1,1,0,5h-5.052Zm-13.621,4.193a2.5,2.5,0,1,1,0-5,2.227,2.227,0,0,1,1.8.807l3.281,4.193h-5.078Zm11.876,8.334v13.646a1.18,1.18,0,0,1-.469,1,1.944,1.944,0,0,1-1.2.352h-5a1.943,1.943,0,0,1-1.2-.352,1.179,1.179,0,0,1-.469-1V161.167h8.334Z"/></g></svg>