<svg xmlns="http://www.w3.org/2000/svg" width="60" height="39" viewBox="0 0 60 39">
  <metadata><?xpacket begin="﻿" id="W5M0MpCehiHzreSzNTczkc9d"?>
<x:xmpmeta xmlns:x="adobe:ns:meta/" x:xmptk="Adobe XMP Core 5.6-c138 79.159824, 2016/09/14-01:09:01        ">
   <rdf:RDF xmlns:rdf="http://www.w3.org/1999/02/22-rdf-syntax-ns#">
      <rdf:Description rdf:about=""/>
   </rdf:RDF>
</x:xmpmeta>
                                                                                                    
                                                                                                    
                                                                                                    
                                                                                                    
                                                                                                    
                                                                                                    
                                                                                                    
                                                                                                    
                                                                                                    
                                                                                                    
                                                                                                    
                                                                                                    
                                                                                                    
                                                                                                    
                                                                                                    
                                                                                                    
                                                                                                    
                                                                                                    
                                                                                                    
                                                                                                    
                           
<?xpacket end="w"?></metadata>
<defs>
    <style>
      .cls-1 {
        fill: #fff;
      }

      .cls-2, .cls-4, .cls-5 {
        fill-rule: evenodd;
      }

      .cls-3 {
        fill: #ff5f00;
      }

      .cls-4 {
        fill: #f79e1b;
      }

      .cls-5 {
        fill: #eb001b;
      }
    </style>
  </defs>
  <rect id="box" class="cls-1" width="60" height="39" rx="3" ry="3"/>
  <path id="txt" class="cls-2" d="M17.23,34.789v-2.05a1.194,1.194,0,0,0-1.084-1.3,1.214,1.214,0,0,0-.186,0,1.353,1.353,0,0,0-1.167.581,1.2,1.2,0,0,0-1.1-.581,1.168,1.168,0,0,0-1,.478v-0.41H12.049v3.28H12.7V32.91a0.766,0.766,0,0,1,.672-0.851,0.787,0.787,0,0,1,.152,0,0.734,0.734,0,0,1,.755.854v1.879h0.652V32.91a0.766,0.766,0,0,1,.672-0.851,0.788,0.788,0,0,1,.152,0,0.734,0.734,0,0,1,.755.854v1.879H17.23Zm10.706-3.246h-1.2V30.552H26.083v0.991H25.4v0.581h0.686v1.538a1,1,0,0,0,1.1,1.2,1.923,1.923,0,0,0,.892-0.239l-0.206-.581a1.129,1.129,0,0,1-.618.171,0.478,0.478,0,0,1-.515-0.547V32.09h1.2V31.543Zm6.108-.1a1.03,1.03,0,0,0-.892.478v-0.41H32.5v3.28h0.652V32.944a0.757,0.757,0,0,1,.721-0.888,2.009,2.009,0,0,1,.446.068l0.206-.615A2.332,2.332,0,0,0,34.044,31.441Zm-9.23.342a2.362,2.362,0,0,0-1.338-.342,1.114,1.114,0,0,0-1.338,1.025,1.016,1.016,0,0,0,1.1.957l0.343,0.034a0.628,0.628,0,0,1,.618.376c0,0.239-.275.41-0.789,0.41a1.814,1.814,0,0,1-1.1-.342l-0.343.512a2.489,2.489,0,0,0,1.407.41c0.961,0,1.476-.444,1.476-1.059a1.008,1.008,0,0,0-1.132-.957l-0.343-.034a0.543,0.543,0,0,1-.583-0.342,0.581,0.581,0,0,1,.652-0.41,2.478,2.478,0,0,1,1.03.273ZM34.8,33.149a1.615,1.615,0,0,0,1.517,1.709,1.638,1.638,0,0,0,.2,0,1.721,1.721,0,0,0,1.167-.376l-0.343-.513a1.375,1.375,0,0,1-.858.307,1.1,1.1,0,0,1,0-2.187,1.378,1.378,0,0,1,.858.308l0.343-.512a1.719,1.719,0,0,0-1.167-.376,1.536,1.536,0,0,0-1.709,1.338A1.515,1.515,0,0,0,34.8,33.149Zm-4.632-1.708a1.574,1.574,0,0,0-1.613,1.708,1.608,1.608,0,0,0,1.5,1.707,1.626,1.626,0,0,0,.177,0,2.1,2.1,0,0,0,1.338-.444l-0.343-.478a1.644,1.644,0,0,1-.961.342,0.963,0.963,0,0,1-1-.854h2.436V33.149A1.542,1.542,0,0,0,30.166,31.441Zm0,0.615a0.819,0.819,0,0,1,.857.778c0,0.014,0,.028,0,0.042H29.24A0.88,0.88,0,0,1,30.166,32.056Zm-8.887,1.093v-1.64H20.627v0.41a1.265,1.265,0,0,0-1.064-.478,1.708,1.708,0,1,0,0,3.417,1.265,1.265,0,0,0,1.064-.478v0.41h0.652v-1.64Zm-2.677,0a1.029,1.029,0,1,1,1.03,1.093,1.007,1.007,0,0,1-1.033-.98A1.052,1.052,0,0,1,18.6,33.149Zm25.358-1.708a1.03,1.03,0,0,0-.892.478v-0.41H42.417v3.28h0.652V32.944a0.757,0.757,0,0,1,.721-0.888,2.009,2.009,0,0,1,.446.068l0.206-.615A2.332,2.332,0,0,0,43.961,31.441Zm5.284,2.87a0.206,0.206,0,0,1,.137.034,0.183,0.183,0,0,1,.1.068,0.181,0.181,0,0,1,.069.1,0.778,0.778,0,0,1,.034.137,0.2,0.2,0,0,1-.034.136c-0.034.034-.034,0.069-0.069,0.1a0.182,0.182,0,0,1-.1.068,0.789,0.789,0,0,1-.137.034,0.206,0.206,0,0,1-.137-0.034c-0.034-.034-0.069-0.034-0.1-0.068a0.181,0.181,0,0,1-.069-0.1,0.757,0.757,0,0,1-.034-0.136,0.2,0.2,0,0,1,.034-0.137c0.034-.034.034-0.069,0.069-0.1a0.183,0.183,0,0,1,.1-0.068C49.142,34.345,49.211,34.311,49.245,34.311Zm0,0.581a0.127,0.127,0,0,0,.1-0.034,0.075,0.075,0,0,0,.069-0.069l0.069-.068c0-.034.034-0.069,0.034-0.1a0.126,0.126,0,0,0-.034-0.1,0.076,0.076,0,0,0-.069-0.069l-0.069-.068c-0.034,0-.069-0.034-0.1-0.034a0.126,0.126,0,0,0-.1.034,0.075,0.075,0,0,0-.069.068L49,34.516c0,0.034-.034.069-0.034,0.1a0.127,0.127,0,0,0,.034.1,0.075,0.075,0,0,0,.069.068l0.069,0.069A0.127,0.127,0,0,0,49.245,34.892Zm0.034-.376a0.126,0.126,0,0,1,.1.034,0.085,0.085,0,0,1,0,.137,0.121,0.121,0,0,1-.069.034l0.1,0.1h-0.1l-0.1-.1H49.177v0.1H49.108V34.516h0.172Zm-0.069.034v0.068h0.1V34.55h-0.1Zm-7.789-1.4v-1.64H40.77v0.41a1.265,1.265,0,0,0-1.064-.478,1.708,1.708,0,1,0,0,3.417,1.265,1.265,0,0,0,1.064-.478v0.41h0.652v-1.64Zm-2.642,0a1.029,1.029,0,1,1,1.029,1.093A0.99,0.99,0,0,1,38.779,33.149Zm9.3,0V30.211H47.427v1.708a1.265,1.265,0,0,0-1.064-.478,1.708,1.708,0,1,0,0,3.417,1.265,1.265,0,0,0,1.064-.478v0.41h0.652v-1.64Zm-2.677,0a1.029,1.029,0,1,1,1.029,1.093,1.007,1.007,0,0,1-1.033-.98,0.981,0.981,0,0,1,0-.114h0Z"/>
  <rect id="middle" class="cls-3" x="24.063" y="6.625" width="11.906" height="19.344"/>
  <path id="right" class="cls-4" d="M48.8,23.923v-0.41h0.172V23.445H48.559v0.069H48.73v0.41H48.8Zm0.824,0V23.445H49.485l-0.137.342-0.137-.342H49.074v0.479h0.1V23.547l0.137,0.307h0.1l0.137-.307v0.376h0.069ZM50,16.3a12.364,12.364,0,0,1-19.971,9.67,12.3,12.3,0,0,0,0-19.34A12.348,12.348,0,0,1,50,16.3Z"/>
  <path id="left" class="cls-5" d="M25.294,16.3a12.316,12.316,0,0,1,4.7-9.67,12.321,12.321,0,1,0-15.27,19.34,12.393,12.393,0,0,0,15.27,0A12.317,12.317,0,0,1,25.294,16.3Z"/>
</svg>
