<svg xmlns="http://www.w3.org/2000/svg" xmlns:xlink="http://www.w3.org/1999/xlink" viewBox="0 0 339.9993 376.0214"><defs><style>.cls-1{isolation:isolate;}.cls-2{fill:#12b2a5;}.cls-3{fill:#d1dee5;}.cls-4{fill:url(#New_Gradient_Swatch_2);}.cls-5{fill:url(#New_Gradient_Swatch_2-2);}.cls-6{opacity:0.2;}.cls-11,.cls-6{mix-blend-mode:multiply;}.cls-7{fill:#fff;}.cls-8{fill:url(#linear-gradient);}.cls-9{fill:url(#linear-gradient-2);}.cls-10{fill:url(#linear-gradient-3);}.cls-11{fill:#d3e5e4;}.cls-12{fill:url(#linear-gradient-4);}.cls-13{fill:url(#linear-gradient-5);}.cls-14{fill:url(#linear-gradient-6);}.cls-15{fill:url(#linear-gradient-7);}.cls-16{fill:url(#linear-gradient-8);}.cls-17{fill:#007369;}.cls-18{fill:url(#New_Gradient_Swatch_2-3);}.cls-19{fill:url(#New_Gradient_Swatch_2-4);}.cls-20{fill:url(#New_Gradient_Swatch_2-5);}.cls-21{fill:url(#New_Gradient_Swatch_2-6);}.cls-22{fill:url(#New_Gradient_Swatch_2-7);}.cls-23{fill:url(#New_Gradient_Swatch_2-8);}.cls-24{fill:url(#New_Gradient_Swatch_2-9);}.cls-25{fill:url(#New_Gradient_Swatch_2-10);}.cls-26{fill:url(#New_Gradient_Swatch_2-11);}.cls-27{fill:url(#New_Gradient_Swatch_2-12);}</style><linearGradient id="New_Gradient_Swatch_2" x1="65.9998" y1="101.8055" x2="65.9998" y2="37.8055" gradientUnits="userSpaceOnUse"><stop offset="0" stop-color="#12b2a5"/><stop offset="1" stop-color="#04df8a"/></linearGradient><linearGradient id="New_Gradient_Swatch_2-2" x1="39.9999" y1="357.8048" x2="39.9999" y2="245.8055" xlink:href="#New_Gradient_Swatch_2"/><linearGradient id="linear-gradient" x1="47.9998" y1="281.8055" x2="303.9998" y2="281.8055" gradientUnits="userSpaceOnUse"><stop offset="0" stop-color="#007369"/><stop offset="1" stop-color="#0f2028"/></linearGradient><linearGradient id="linear-gradient-2" x1="90.6665" y1="349.8055" x2="90.6665" y2="256.4722" gradientUnits="userSpaceOnUse"><stop offset="0" stop-color="#12ada0"/><stop offset="1" stop-color="#0f2028"/></linearGradient><linearGradient id="linear-gradient-3" x1="175.9998" y1="341.8055" x2="175.9998" y2="213.8055" gradientUnits="userSpaceOnUse"><stop offset="0" stop-color="#007369"/><stop offset="1" stop-color="#19323c"/></linearGradient><linearGradient id="linear-gradient-4" x1="47.9998" y1="193.8055" x2="303.9998" y2="193.8055" xlink:href="#linear-gradient"/><linearGradient id="linear-gradient-5" x1="90.6665" y1="261.8055" x2="90.6665" y2="168.4722" xlink:href="#linear-gradient-2"/><linearGradient id="linear-gradient-6" x1="175.9998" y1="253.8055" x2="175.9998" y2="125.8055" xlink:href="#linear-gradient-3"/><linearGradient id="linear-gradient-7" x1="47.9998" y1="105.8055" x2="303.9998" y2="105.8055" xlink:href="#linear-gradient"/><linearGradient id="linear-gradient-8" x1="90.6665" y1="173.8055" x2="90.6665" y2="80.4722" xlink:href="#linear-gradient-2"/><linearGradient id="New_Gradient_Swatch_2-3" x1="15.9998" y1="189.8055" x2="15.9998" y2="173.8055" xlink:href="#New_Gradient_Swatch_2"/><linearGradient id="New_Gradient_Swatch_2-4" x1="67.5768" y1="234.9597" x2="67.5768" y2="219.8055" xlink:href="#New_Gradient_Swatch_2"/><linearGradient id="New_Gradient_Swatch_2-5" x1="261.2101" y1="370.7919" x2="261.2101" y2="363.6379" xlink:href="#New_Gradient_Swatch_2"/><linearGradient id="New_Gradient_Swatch_2-6" x1="335.9993" y1="245.8055" x2="335.9993" y2="238.6515" xlink:href="#New_Gradient_Swatch_2"/><linearGradient id="New_Gradient_Swatch_2-7" x1="140.9101" y1="37.3826" x2="140.9101" y2="22.2285" xlink:href="#New_Gradient_Swatch_2"/><linearGradient id="New_Gradient_Swatch_2-8" x1="301.4468" y1="343.8046" x2="301.4468" y2="277.8049" xlink:href="#New_Gradient_Swatch_2"/><linearGradient id="New_Gradient_Swatch_2-9" x1="115.1537" y1="341.8047" x2="115.1537" y2="309.8047" xlink:href="#New_Gradient_Swatch_2"/><linearGradient id="New_Gradient_Swatch_2-10" x1="167.9993" y1="197.8046" x2="167.9993" y2="85.8055" xlink:href="#New_Gradient_Swatch_2"/><linearGradient id="New_Gradient_Swatch_2-11" x1="299.9998" y1="79.7991" x2="299.9998" y2="0" xlink:href="#New_Gradient_Swatch_2"/><linearGradient id="New_Gradient_Swatch_2-12" x1="224.0293" y1="292.5199" x2="224.0293" y2="212.7191" xlink:href="#New_Gradient_Swatch_2"/></defs><title>2News_1</title><g class="cls-1"><g id="Layer_2" data-name="Layer 2"><g id="News_copy" data-name="News copy"><path class="cls-2" d="M307.9993,189.6111h0a4.0118,4.0118,0,0,1-4-4V149.9987a4.0118,4.0118,0,0,1,4-4h0a4.0118,4.0118,0,0,1,4,4v35.6123A4.0118,4.0118,0,0,1,307.9993,189.6111Zm-12,57.1038V167.9987a4.0118,4.0118,0,0,0-4-4h0a4.0118,4.0118,0,0,0-4,4v78.7162a4.0118,4.0118,0,0,0,4,4h0A4.0118,4.0118,0,0,0,295.9993,246.7149Z"/><path class="cls-3" d="M52,193.8055h0a4.0118,4.0118,0,0,1,4,4v12a4.0116,4.0116,0,0,1-4,4h0a4.0116,4.0116,0,0,1-4-4v-12A4.0116,4.0116,0,0,1,52,193.8055Zm120,128v32a4.0116,4.0116,0,0,0,4,4h0a4.0116,4.0116,0,0,0,4-4v-32a4.0118,4.0118,0,0,0-4-4h0A4.0116,4.0116,0,0,0,172,321.8054Zm132-72v16a4.0116,4.0116,0,0,0,4,4h0a4.0116,4.0116,0,0,0,4-4v-16a4.0118,4.0118,0,0,0-4-4h0A4.0116,4.0116,0,0,0,304,249.8054Z"/><path class="cls-2" d="M77.9988,145.8055h0a4.0118,4.0118,0,0,1-4-4v-52a4.0118,4.0118,0,0,1,4-4h0a4.0118,4.0118,0,0,1,4,4v52A4.0118,4.0118,0,0,1,77.9988,145.8055Zm-20,.3877v-16a4.0118,4.0118,0,0,0-4-4h0a4.0118,4.0118,0,0,0-4,4v16a4.0118,4.0118,0,0,0,4,4h0A4.0118,4.0118,0,0,0,57.9988,146.1932Zm0-32v-8a4.0118,4.0118,0,0,0-4-4h0a4.0118,4.0118,0,0,0-4,4v8a4.0118,4.0118,0,0,0,4,4h0A4.0118,4.0118,0,0,0,57.9988,114.1932Z"/><path class="cls-4" d="M66,37.8055a32,32,0,1,0,32,32A32,32,0,0,0,66,37.8055ZM66,84.959A15.1541,15.1541,0,1,1,81.154,69.8057,15.155,15.155,0,0,1,66,84.959Z"/><path class="cls-5" d="M80,285.8051a40,40,0,1,0-52.001,38.1555v13.4565a4,4,0,0,0,8,0V322.1925a4,4,0,0,1,8,0v31.6123a4,4,0,0,0,8,0V323.9612A40.007,40.007,0,0,0,80,285.8051Z"/><g class="cls-6"><path d="M17.9531,284.7755H33.9218l-1.8478,6.0059H16.106Zm41.3684-2.8317c-.6352,2.2944-2.7006,9.18-3.5485,11.6219a10.4608,10.4608,0,0,1-4.4117,5.6636c-2.0023,1.172-2.7505,1.6631-5.5494,1.6631H17.1563l2.0183-6.54h26.95L50.15,281.26H23.4144l2.0186-6.5414H55.269a4.5415,4.5415,0,0,1,4.0524,2.3418C60.2,278.77,59.9561,279.6483,59.3215,281.9438Z"/></g><path class="cls-7" d="M19.9531,282.7755H35.9218l-1.8478,6.0059H18.106Zm41.3684-2.8317c-.6352,2.2944-2.7006,9.18-3.5485,11.6219a10.4608,10.4608,0,0,1-4.4117,5.6636c-2.0023,1.172-2.7505,1.6631-5.5494,1.6631H19.1563l2.0183-6.54h26.95L52.15,279.26H25.4144l2.0186-6.5414H57.269a4.5415,4.5415,0,0,1,4.0524,2.3418C62.2,276.77,61.9561,277.6483,61.3215,279.9438Z"/><g id="Layers"><polygon class="cls-8" points="48 264.472 133.333 349.806 304 307.139 304 299.139 218.666 213.806 48 256.472 48 264.472"/><polygon class="cls-9" points="133.333 341.806 133.333 349.806 48 264.472 48 256.472 133.333 341.806"/><polygon class="cls-10" points="48 256.472 133.333 341.806 304 299.139 218.666 213.806 48 256.472"/><polygon class="cls-11" points="99.2 243.672 133.333 277.806 252.8 247.939 218.667 213.806 99.2 243.672"/><polygon class="cls-12" points="48 176.472 133.333 261.806 304 219.139 304 211.139 218.666 125.806 48 168.472 48 176.472"/><polygon class="cls-13" points="133.333 253.806 133.333 261.806 48 176.472 48 168.472 133.333 253.806"/><polygon class="cls-14" points="48 168.472 133.333 253.806 304 211.139 218.666 125.806 48 168.472"/><polygon class="cls-11" points="99.2 155.672 133.333 189.806 252.8 159.939 218.667 125.806 99.2 155.672"/><polygon class="cls-15" points="48 88.472 133.333 173.806 304 131.139 304 123.139 218.666 37.806 48 80.472 48 88.472"/><polygon class="cls-16" points="133.333 165.806 133.333 173.806 48 88.472 48 80.472 133.333 165.806"/><polygon class="cls-17" points="48 80.472 133.333 165.806 304 123.139 218.666 37.806 48 80.472"/></g><path class="cls-18" d="M16,173.8055a8,8,0,1,0,8,8A8,8,0,0,0,16,173.8055Zm0,11.7884a3.7885,3.7885,0,1,1,3.7884-3.7883A3.7887,3.7887,0,0,1,16,185.5939Z"/><path class="cls-19" d="M67.5769,234.96a7.5771,7.5771,0,1,1,7.5768-7.5767A7.5775,7.5775,0,0,1,67.5769,234.96Z"/><path class="cls-20" d="M261.21,370.7919a3.577,3.577,0,1,1,3.5769-3.5768A3.5772,3.5772,0,0,1,261.21,370.7919Z"/><path class="cls-21" d="M335.9994,245.8055a3.577,3.577,0,1,1,3.5769-3.5768A3.5772,3.5772,0,0,1,335.9994,245.8055Z"/><path class="cls-22" d="M140.91,37.3826a7.5771,7.5771,0,1,1,7.5768-7.5767A7.5775,7.5775,0,0,1,140.91,37.3826Z"/><rect class="cls-2" x="297.6392" y="339.9984" width="19.6123" height="8" rx="4" ry="4" transform="translate(-36.553 651.4438) rotate(-90)"/><path class="cls-23" d="M301.447,277.8049a23.9957,23.9957,0,0,0-13.91,43.5514,3.9682,3.9682,0,0,0-.0918.8359v17.6123a4,4,0,0,0,8,0V325.048a24.0024,24.0024,0,1,0,6.0016-47.243Z"/><g class="cls-6"><path d="M309.4917,314.4984a5.8379,5.8379,0,0,1-7.8252,2.1118,5.4893,5.4893,0,0,1-2.1751-7.5973,2.2872,2.2872,0,0,0-.9068-3.165,2.4332,2.4332,0,0,0-3.2326.8353h0v-.0047c-.0094.0166-.0177.0331-.0272.0491a5.8355,5.8355,0,0,1-7.825,2.1117,5.4887,5.4887,0,0,1-2.1756-7.5962,5.8361,5.8361,0,0,1,7.8257-2.1117,5.64,5.64,0,0,1,2.1411,2.055v-.0035h0a2.4338,2.4338,0,0,0,3.25.7626,2.2845,2.2845,0,0,0,.8338-3.1832,5.4852,5.4852,0,0,1,2.002-7.6415,5.8415,5.8415,0,0,1,7.8715,1.9434,5.4844,5.4844,0,0,1-2.0021,7.6411,5.848,5.848,0,0,1-2.9014.7827l.0026.0012v.0005a2.3445,2.3445,0,1,0,.1114,4.687l-.0082.004a5.8554,5.8554,0,0,1,2.8666.7209A5.49,5.49,0,0,1,309.4917,314.4984Z"/></g><path class="cls-7" d="M311.4917,312.4984a5.8379,5.8379,0,0,1-7.8252,2.1118,5.4893,5.4893,0,0,1-2.1751-7.5973,2.2872,2.2872,0,0,0-.9068-3.165,2.4332,2.4332,0,0,0-3.2326.8353h0v-.0047c-.0094.0166-.0177.0331-.0272.0491a5.8355,5.8355,0,0,1-7.825,2.1117,5.4887,5.4887,0,0,1-2.1756-7.5962,5.8361,5.8361,0,0,1,7.8257-2.1117,5.64,5.64,0,0,1,2.1411,2.055v-.0035h0a2.4338,2.4338,0,0,0,3.25.7626,2.2845,2.2845,0,0,0,.8338-3.1832,5.4852,5.4852,0,0,1,2.002-7.6415,5.8415,5.8415,0,0,1,7.8715,1.9434,5.4844,5.4844,0,0,1-2.0021,7.6411,5.848,5.848,0,0,1-2.9014.7827l.0026.0012v.0005a2.3445,2.3445,0,1,0,.1114,4.687l-.0082.004a5.8554,5.8554,0,0,1,2.8666.7209A5.49,5.49,0,0,1,311.4917,312.4984Z"/><path class="cls-24" d="M115.1537,309.8047a16,16,0,1,0,16,16A16,16,0,0,0,115.1537,309.8047Zm0,23.5767a7.5771,7.5771,0,1,1,7.5768-7.5767A7.5775,7.5775,0,0,1,115.154,333.3815Z"/><path class="cls-2" d="M155.9988,232.1389h0a4.0118,4.0118,0,0,1-4-4v-10a4.0118,4.0118,0,0,1,4-4h0a4.0118,4.0118,0,0,1,4,4v10A4.0118,4.0118,0,0,1,155.9988,232.1389Zm28-30.7219V185.8046a4.0118,4.0118,0,0,0-4-4h0a4.0118,4.0118,0,0,0-4,4v15.6123a4.0118,4.0118,0,0,0,4,4h0A4.0118,4.0118,0,0,0,183.9988,201.4169Z"/><path class="cls-25" d="M167.9992,85.8055a40,40,0,0,0-16,76.6609v31.3381a4,4,0,0,0,8,0V165.0028a40.0024,40.0024,0,1,0,8-79.1973Z"/><g class="cls-6"><path d="M165.4806,154.305l-15.807-22.36,15.807,9.2548Zm0-16.3821-15.9143-9.3217,15.9143-6.972Zm0-17.4135-15.4016,6.7458,15.4016-25.8763Zm1.026-19.1383,15.618,25.9805-15.618-6.8422Zm0,52.934V141.2l15.8072-9.2548Zm0-16.3812V121.63l15.9259,6.9759Z"/></g><path class="cls-7" d="M167.4806,152.305l-15.807-22.36,15.807,9.2548Zm0-16.3821-15.9143-9.3217,15.9143-6.972Zm0-17.4135-15.4016,6.7458,15.4016-25.8763Zm1.026-19.1383,15.618,25.9805-15.618-6.8422Zm0,52.934V139.2l15.8072-9.2548Zm0-16.3812V119.63l15.9259,6.9759Z"/><path class="cls-2" d="M291.9993,121.9987h0a4.0118,4.0118,0,0,1-4-4v-50a4.0118,4.0118,0,0,1,4-4h0a4.0118,4.0118,0,0,1,4,4v50A4.0118,4.0118,0,0,1,291.9993,121.9987Zm20-30V76.3864a4.0118,4.0118,0,0,0-4-4h0a4.0118,4.0118,0,0,0-4,4V91.9988a4.0118,4.0118,0,0,0,4,4h0A4.0118,4.0118,0,0,0,311.9993,91.9988Z"/><path class="cls-26" d="M300,0a40,40,0,0,0-4.0009,79.799V76.774a4,4,0,1,1,8,0v3.025A40,40,0,0,0,300,0Z"/><g class="cls-6"><path d="M315.14,41.9059A11.9705,11.9705,0,0,0,311.056,40.13a11.0992,11.0992,0,0,0,2.86-2.3535,8.91,8.91,0,0,0,1.3152-3.9424c.0693-.9468.2315-4.9147-2.86-7.1985-2.3912-1.7664-5.1309-2.4678-8.8115-2.695v-8.007h-4.937v7.91h-3.7595v-7.91h-4.9362v7.91h-9.7116V28.97h2.8535c.7793,0,2.1628.0867,2.751.7449s.6923,1.0045.6923,2.2838V52.425a1.9961,1.9961,0,0,1-.5075,1.4758c-.4147.3925-.83.4849-1.8217.4849H281.23l-1.0147,5.9292h9.7113v7.89h4.937v-7.89h3.76v7.89h4.937v-8.02c1.2755-.0746,2.4652-.1709,3.1595-.2625a16.4166,16.4166,0,0,0,7.567-2.6292c2.9755-2.076,3.6442-5.33,3.7117-8.6052C318.07,45.4125,316.8223,43.1761,315.14,41.9059Zm-20.2767-2.9518V29.4279s1.5688-.1389,3.1143-.1163a15.7064,15.7064,0,0,1,4.937.6917A4.2678,4.2678,0,0,1,306.19,33.949a3.8658,3.8658,0,0,1-2.1233,3.7595,12.0462,12.0462,0,0,1-5.0975,1.2457C297.17,39.0239,294.8635,38.9541,294.8628,38.9541Zm11.05,14.071a15.6675,15.6675,0,0,1-5.5818,1.3393c-2.1922.1611-5.4677.0914-5.4677.0914V43.8679s3.1367-.1616,5.5823,0a15.8051,15.8051,0,0,1,5.42,1.2465,4.3679,4.3679,0,0,1,.047,7.9107Z"/></g><path class="cls-7" d="M317.14,39.9059A11.9705,11.9705,0,0,0,313.056,38.13a11.0992,11.0992,0,0,0,2.86-2.3535,8.91,8.91,0,0,0,1.3152-3.9424c.0693-.9468.2315-4.9147-2.86-7.1985-2.3912-1.7664-5.1309-2.4678-8.8115-2.695v-8.007h-4.937v7.91h-3.7595v-7.91h-4.9362v7.91h-9.7116V26.97h2.8535c.7793,0,2.1628.0867,2.751.7449s.6923,1.0045.6923,2.2838V50.425a1.9961,1.9961,0,0,1-.5075,1.4758c-.4147.3925-.83.4849-1.8217.4849H283.23l-1.0147,5.9292h9.7113v7.89h4.937v-7.89h3.76v7.89h4.937v-8.02c1.2755-.0746,2.4652-.1709,3.1595-.2625a16.4166,16.4166,0,0,0,7.567-2.6292c2.9755-2.076,3.6442-5.33,3.7117-8.6052C320.07,43.4125,318.8223,41.1761,317.14,39.9059Zm-20.2767-2.9518V27.4279s1.5688-.1389,3.1143-.1163a15.7064,15.7064,0,0,1,4.937.6917A4.2678,4.2678,0,0,1,308.19,31.949a3.8658,3.8658,0,0,1-2.1233,3.7595,12.0462,12.0462,0,0,1-5.0975,1.2457C299.17,37.0239,296.8635,36.9541,296.8628,36.9541Zm11.05,14.071a15.6675,15.6675,0,0,1-5.5818,1.3393c-2.1922.1611-5.4677.0914-5.4677.0914V41.8679s3.1367-.1616,5.5823,0a15.8051,15.8051,0,0,1,5.42,1.2465,4.3679,4.3679,0,0,1,.047,7.9107Z"/><path class="cls-2" d="M216.0591,309.15h0a3.9964,3.9964,0,0,1-3.9847-3.9847V288.7031a3.9964,3.9964,0,0,1,3.9847-3.9847h0a3.9964,3.9964,0,0,1,3.9847,3.9847v16.4623A3.9964,3.9964,0,0,1,216.0591,309.15Zm3.9847,62.8865V349.5744a3.9964,3.9964,0,0,0-3.9847-3.9847h0a3.9964,3.9964,0,0,0-3.9847,3.9847v22.4623a3.9964,3.9964,0,0,0,3.9847,3.9847h0A3.9964,3.9964,0,0,0,220.0438,372.0367Zm15.9389-21.303V288.7031a3.9964,3.9964,0,0,0-3.9847-3.9847h0a3.9964,3.9964,0,0,0-3.9847,3.9847v62.0305a3.9964,3.9964,0,0,0,3.9847,3.9847h0A3.9964,3.9964,0,0,0,235.9827,350.7337Z"/><path class="cls-27" d="M224.0289,212.7191a40,40,0,0,0-3.985,79.8008v-3.6335a3.9847,3.9847,0,0,1,7.9695,0V292.52a40,40,0,0,0-3.9844-79.8008Z"/><g class="cls-6"><path d="M237.5559,274.2241H206.302l2.627-12.54-5.1077,3.5027,1.2405-6.863,5.3426-3.6778,5.24-25.0135h9.7568l-3.6078,17.1755,12.7028-8.7422-1.4885,7.1111-12.7008,8.7067-2.5125,11.9646h21.4971Z"/></g><path class="cls-7" d="M239.5559,272.2241H208.302l2.627-12.54-5.1077,3.5027,1.2405-6.863,5.3426-3.6778,5.24-25.0135h9.7568l-3.6078,17.1755,12.7028-8.7422-1.4885,7.1111-12.7008,8.7067-2.5125,11.9646h21.4971Z"/><rect class="cls-2" x="55.4988" y="147.8055" width="45" height="8" rx="4" ry="4" transform="translate(-73.8067 229.8044) rotate(-90)"/></g></g></g></svg>