<svg xmlns="http://www.w3.org/2000/svg" width="60" height="39" viewBox="0 0 60 39">
  <metadata><?xpacket begin="﻿" id="W5M0MpCehiHzreSzNTczkc9d"?>
<x:xmpmeta xmlns:x="adobe:ns:meta/" x:xmptk="Adobe XMP Core 5.6-c138 79.159824, 2016/09/14-01:09:01        ">
   <rdf:RDF xmlns:rdf="http://www.w3.org/1999/02/22-rdf-syntax-ns#">
      <rdf:Description rdf:about=""/>
   </rdf:RDF>
</x:xmpmeta>
                                                                                                    
                                                                                                    
                                                                                                    
                                                                                                    
                                                                                                    
                                                                                                    
                                                                                                    
                                                                                                    
                                                                                                    
                                                                                                    
                                                                                                    
                                                                                                    
                                                                                                    
                                                                                                    
                                                                                                    
                                                                                                    
                                                                                                    
                                                                                                    
                                                                                                    
                                                                                                    
                           
<?xpacket end="w"?></metadata>
<defs>
    <style>
      .cls-1 {
        fill: #fff;
      }

      .cls-2 {
        fill: #1a1f71;
      }

      .cls-2, .cls-3 {
        fill-rule: evenodd;
      }

      .cls-3 {
        fill: #f7b600;
      }
    </style>
  </defs>
  <rect id="bg" class="cls-1" width="60" height="39" rx="4" ry="4"/>
  <path id="blue" class="cls-2" d="M4.951,2h50.1A2.977,2.977,0,0,1,58,5V6.98H2V5A2.977,2.977,0,0,1,4.951,2ZM23.215,12.2L17.223,26.838H13.3l-2.94-11.7A1.613,1.613,0,0,0,9.5,13.861a14.621,14.621,0,0,0-3.656-1.236L5.917,12.2h6.294a1.737,1.737,0,0,1,1.7,1.506l1.545,8.458L19.3,12.2h3.919Zm15.338,9.848c0-3.862-5.2-4.094-5.163-5.793,0-.541.49-1.081,1.583-1.236a6.89,6.89,0,0,1,3.656.656l0.641-3.09A9.439,9.439,0,0,0,35.8,11.93c-3.656,0-6.218,2.008-6.256,4.828-0.038,2.124,1.847,3.283,3.241,3.978s1.922,1.2,1.922,1.815c0,0.965-1.168,1.429-2.224,1.429a7.43,7.43,0,0,1-3.806-.927L28,26.258a10.272,10.272,0,0,0,4.108.773c3.882,0.039,6.407-1.931,6.444-4.982M48.2,26.838H51.63L48.653,12.2H45.488A1.685,1.685,0,0,0,43.9,13.282L38.327,26.838h3.882l0.754-2.2h4.748Zm-4.145-5.175,1.96-5.484,1.131,5.484h-3.09ZM28.491,12.2L25.439,26.838H21.745L24.8,12.2h3.693Z"/>
  <path id="yellow" class="cls-3" d="M2,32.019H58v1.976a2.977,2.977,0,0,1-2.951,3H4.951a2.977,2.977,0,0,1-2.951-3V32.019Z"/>
</svg>
