<svg xmlns="http://www.w3.org/2000/svg" xmlns:xlink="http://www.w3.org/1999/xlink" width="74" height="144" viewBox="0 0 74 144"><defs><path id="5mnaa" d="M800 229.93a4 4 0 0 0 4-4V206a4 4 0 0 0-8 0v19.95a4 4 0 0 0 4 3.99zm32 11.97a4 4 0 0 0 4-3.99v-15.96a4 4 0 0 0-8 0v15.96a4 4 0 0 0 4 4zm-16 23.94a4 4 0 0 0 4-3.99v-31.92a4 4 0 0 0-8 0v31.92a4 4 0 0 0 4 4zm36-23.94a4 4 0 0 0-8 0v23.94a4 4 0 0 1-8 0v-12.69l-.07.08a4 4 0 0 0-7.93.64v27.94a4 4 0 0 1-8 0v-6.99a4 4 0 0 0-8 0v14.97a4 4 0 0 1-8 0V241.9a4 4 0 0 0-8 0v23.94a4 4 0 0 1-8 0l.21-16.48a4 4 0 0 0-8 0l-.21 45.23c0 4.22 1.49 8.3 4.2 11.54l28.35 33.73a4.5 4.5 0 0 0 6.9 0l28.34-33.73a17.93 17.93 0 0 0 4.21-11.54z"/><linearGradient id="5mnab" x1="816" x2="816" y1="341.47" y2="202" gradientUnits="userSpaceOnUse"><stop offset="0" stop-color="#04df8a"/><stop offset="1" stop-color="#12b2a5"/></linearGradient></defs><g><g transform="translate(-779 -200)"><use fill="url(#5mnab)" xlink:href="#5mnaa"/></g></g></svg>